<?xml version="1.0" encoding="UTF-8"?>
<svg id="Globe" xmlns="http://www.w3.org/2000/svg" viewBox="0 0 265.01 206.3">
  <defs>
    <style>
      .cls-1 {
        fill: none;
        stroke: #27306a;
        stroke-miterlimit: 10;
      }

      .cls-2 {
        fill: #292f6c;
      }
    </style>
  </defs>
  <path class="cls-2" d="m238.71,161.4c.88-38.37-.04-80.12-3.08-118.58-2.92-32.43-1.1-31.97,26.02-34.02-.04-2.94-.08-5.87-.12-8.8h-53.96c-17.62,43.04-46.27,108.63-73.52,163.45C107.64,108.79,79.14,42.75,61.89,0H9.84c-.11,2.87-.22,5.75-.33,8.64,28.22,2.52,29.03,1.96,23.91,43.57-4.22,28.01-6.58,113.26-8.48,127.62C23.7,192.66,18.08,195.95,0,197.41,0,200.37,0,203.34,0,206.3h74.04c-.3-2.43-.6-4.92-.87-7.48-21.61-2.25-29.21-4.22-31.06-18.84-4.52-22.01-.02-119.21,4.87-148.03.21,0,.42-.02.63-.03,18.32,52.78,48.52,127.54,74.23,172.88,2.23,0,4.46,0,6.69,0,25.93-46.11,59.96-124.09,80.32-177.5.32.01.64.02.96.03,3.82,41.53,4.63,91.84,2.42,135.3-2.31,33.35-4.26,33.76-30.62,36.58-.13,2.42-.27,4.78-.42,7.08h83.84v-8.57c-26.79-2.07-27.28-2.91-26.31-36.32Z"/>
  <path class="cls-2" d="m181.35,206.3h-107.31c-.3-2.43-.6-4.92-.87-7.48,13.95,1.69,27.92,3.22,41.76,4.66,7.42.76,14.85.8,22.25.11,14.75-1.36,29.67-2.79,44.6-4.37-.13,2.42-.27,4.78-.42,7.08Z"/>
  <g>
    <path class="cls-1" d="m125.31,26.41c-50.61-.72-92.8,40.73-91.35,91.43-.18,51.46,43.81,87.81,91.2,86.34-20.37-6.8-43.79-36.37-49.32-73.49-5.93-36.58,6.03-80.72,47.09-104.14,40.69,21.95,54.81,66.05,50.36,102.8-3.97,37.35-26.51,67.34-48.08,74.84.15,0,.3,0,.45,0,47.12,1.56,91.83-33.62,92.2-86.14,1.22-51.66-42.31-92.7-92.55-91.63Z"/>
    <path class="cls-1" d="m34.47,117.85c54.52.93,126.42,1,183.39.2"/>
    <path class="cls-1" d="m43.27,76.13c0-.16,18.79-10.64,50.02-15.95,30.85-5.33,74.14-5.48,114.29,14.56"/>
    <path class="cls-1" d="m44.75,159.61c-.86-.29,80.15,43.81,162.47-.46"/>
    <path class="cls-1" d="m36.1,96.65c.17.28,19.49-5.32,54.09-8.08,33.85-2.78,82.98-2.72,125.52,8.41"/>
    <path class="cls-1" d="m36.31,137.46c.05-.03,19.89,8,54.02,12.07,33.58,4.1,81.44,4.22,124.89-10.95"/>
  </g>
</svg>