<?xml version="1.0" encoding="UTF-8"?>
<svg id="Globe" xmlns="http://www.w3.org/2000/svg" viewBox="0 0 265.01 206.3">
  <defs>
    <style>
      .cls-1 {
        fill: none;
        stroke: #27306a;
        stroke-miterlimit: 10;
      }

      .cls-2 {
        fill: #292f6c;
      }
    </style>
  </defs>
  <path class="cls-2" d="m238.71,161.4c.88-38.37-.04-80.12-3.08-118.58-2.92-32.43-1.1-31.97,26.02-34.02-.04-2.94-.08-5.87-.12-8.8h-53.96c-17.62,43.04-46.27,108.63-73.52,163.45C107.64,108.79,79.14,42.75,61.89,0H9.84c-.11,2.87-.22,5.75-.33,8.64,28.22,2.52,29.03,1.96,23.91,43.57-4.22,28.01-6.58,113.26-8.48,127.62C23.7,192.66,18.08,195.95,0,197.41,0,200.37,0,203.34,0,206.3h74.04c-.3-2.43-.6-4.92-.87-7.48-21.61-2.25-29.21-4.22-31.06-18.84-4.52-22.01-.02-119.21,4.87-148.03.21,0,.42-.02.63-.03,18.32,52.78,48.52,127.54,74.23,172.88,2.23,0,4.46,0,6.69,0,25.93-46.11,59.96-124.09,80.32-177.5.32.01.64.02.96.03,3.82,41.53,4.63,91.84,2.42,135.3-2.31,33.35-4.26,33.76-30.62,36.58-.13,2.42-.27,4.78-.42,7.08h83.84v-8.57c-26.79-2.07-27.28-2.91-26.31-36.32Z"/>
  <path class="cls-2" d="m181.35,206.3h-107.31c-.3-2.43-.6-4.92-.87-7.48,13.95,1.69,27.92,3.22,41.76,4.66,7.42.76,14.85.8,22.25.11,14.75-1.36,29.67-2.79,44.6-4.37-.13,2.42-.27,4.78-.42,7.08Z"/>
  <path class="cls-1" d="m219.82,119.08c-.36,52.42-45.09,87.5-92.14,85.9-47.39,1.71-91.85-34.24-91.81-86.05-1.46-50.8,40.89-92.32,91.54-91.57,50.4-1,93.71,40.25,92.4,91.73Z"/>
  <path class="cls-1" d="m127.41,27.6c40.7,23.14,54.2,67.2,49.26,103.59-4.48,36.99-27.39,66.3-49,73.79"/>
  <path class="cls-1" d="m126.08,27.48c-41.05,23.45-53.52,67.74-48.07,104.26,5.03,37.09,27.97,66.41,48.25,73.13"/>
  <path class="cls-1" d="m126.75,27.48c-.47,54.75-.37,132.05.3,177.4"/>
  <path class="cls-1" d="m36.39,118.94c54.92.98,126.81,1.03,183.43.15"/>
  <path class="cls-1" d="m45.21,77.13c0-.15,18.89-10.65,50.21-15.93,30.92-5.31,74.27-5.41,114.23,14.64"/>
  <path class="cls-1" d="m46.78,160.71c-.76-.27,80.36,43.58,162.4-.61"/>
  <path class="cls-1" d="m38,97.69c.16.28,19.65-5.31,54.35-8.04,33.95-2.76,83.09-2.67,125.36,8.41"/>
  <path class="cls-1" d="m38.27,138.57c.05-.02,20.06,8.01,54.23,12.04,33.63,4.07,81.43,4.15,124.67-11.04"/>
</svg>