<?xml version="1.0" encoding="UTF-8"?><svg id="Ebene_2" xmlns="http://www.w3.org/2000/svg" width="64.9mm" height="42.86mm" viewBox="0 0 183.96 121.5"><defs><style>.cls-1{fill:#1d1d1b;}</style></defs><g id="Z1"><path d="m110.55,95.13l-1.88,13.97c-.13,1.03-.27,2.19-.32,3.15h-.71l.28-2.55h-.03c-.76,1.71-1.81,2.82-3.11,2.82-1.69,0-2.38-2.01-2.38-4.12,0-4.17,2.23-7.99,5-7.99.62,0,1.29.2,1.65.47l.74-5.75h.77Zm-1.66,6.78c-.34-.3-.87-.55-1.58-.55-2.29,0-4.13,3.34-4.13,6.95,0,1.41.28,3.28,1.8,3.28,1.31,0,2.91-2.19,3.28-5.04l.62-4.64Z"/><path d="m116.44,112.25c-.02-.71.08-2,.23-3.43h-.03c-.96,2.71-2.14,3.7-3.42,3.7-1.44,0-2.27-1.64-2.27-3.7,0-4.12,2.26-8.41,5.52-8.41.66,0,1.4.14,1.89.35l-.82,6.02c-.31,2.35-.4,4.29-.36,5.47h-.74Zm1.04-10.69c-.2-.11-.55-.21-1.17-.21-2.46,0-4.56,3.38-4.58,7.28,0,1.39.31,2.96,1.65,2.96,1.46,0,3.13-2.79,3.56-6.02l.54-4.01Z"/><path d="m122.58,97.64l-.42,3.03h2.08l-.13.9h-2.08l-.88,6.7c-.1.77-.18,1.36-.18,2.09,0,.77.27,1.22.82,1.22.28,0,.49-.04.66-.12l.06.87c-.21.11-.53.18-.87.18-1.1,0-1.46-1.07-1.46-2.09,0-.7.07-1.38.18-2.19l.9-6.65h-1.25l.13-.9h1.25l.36-2.72.82-.31Z"/><path d="m129.95,112.25c-.02-.71.08-2,.23-3.43h-.03c-.96,2.71-2.14,3.7-3.42,3.7-1.44,0-2.27-1.64-2.27-3.7,0-4.12,2.26-8.41,5.52-8.41.66,0,1.4.14,1.89.35l-.82,6.02c-.31,2.35-.4,4.29-.36,5.47h-.74Zm1.04-10.69c-.2-.11-.55-.21-1.17-.21-2.46,0-4.56,3.38-4.58,7.28,0,1.39.31,2.96,1.65,2.96,1.46,0,3.13-2.79,3.56-6.02l.54-4.01Z"/><path d="m136.03,110.89c.34.33.92.67,1.52.67,1.11,0,1.88-1.11,1.88-2.42,0-1.12-.3-1.79-1.21-2.55-.95-.8-1.32-1.85-1.32-2.88,0-1.79,1.08-3.31,2.56-3.31.61,0,1.2.28,1.45.56l-.28.93c-.24-.23-.72-.54-1.27-.54-.99,0-1.7.98-1.7,2.2,0,1.09.43,1.68,1.2,2.34.92.78,1.33,1.86,1.33,2.97,0,2.3-1.27,3.65-2.72,3.65-.78,0-1.44-.39-1.74-.72l.28-.89Z"/><path d="m147.35,111.73c-.35.25-1.21.77-2.41.77-2.15,0-2.95-2.19-2.95-4.31,0-3.85,1.98-7.79,4.81-7.79.8,0,1.55.4,1.72.61l-.28.92c-.35-.25-.87-.53-1.56-.53-2.38,0-3.89,3.53-3.89,6.62,0,2.06.68,3.53,2.3,3.53.91,0,1.64-.44,2.06-.75l.21.92Z"/><path d="m149.06,112.25l1.56-11.58h.76l-1.56,11.58h-.77Zm1.77-14.9c0-.52.27-.98.63-.98s.6.43.6.98c-.03.51-.25.97-.66.97-.38,0-.59-.46-.58-.97Z"/><path d="m157.86,111.59c-.41.37-1.27.92-2.48.92-2.07,0-2.84-2.24-2.84-4.51,0-3.47,1.84-7.59,4.27-7.59,1.49,0,2.12,1.31,2.12,2.65,0,3.11-2.66,3.73-5.52,3.68-.12.61-.09,2.04.11,2.84.34,1.33,1.05,1.98,1.98,1.98,1.03,0,1.73-.49,2.14-.83l.23.86Zm-1.19-10.23c-1.47,0-2.7,2.18-3.16,4.46,2.41.04,4.62-.4,4.62-2.68,0-1.19-.62-1.79-1.47-1.79Z"/><path d="m159.76,112.25l1.13-8.46c.17-1.18.27-2.21.35-3.12h.71l-.25,2.5h.03c.71-1.71,1.87-2.76,3.14-2.76.74,0,2.04.56,2.04,3.24,0,.51-.06,1.16-.15,1.82l-.91,6.78h-.76l.92-6.87c.06-.48.12-1.06.12-1.6,0-1.38-.39-2.41-1.57-2.41s-2.88,1.89-3.27,4.95l-.77,5.93h-.77Z"/><path d="m173.89,111.73c-.35.25-1.21.77-2.41.77-2.15,0-2.95-2.19-2.95-4.31,0-3.85,1.98-7.79,4.81-7.79.8,0,1.55.4,1.72.61l-.28.92c-.35-.25-.87-.53-1.56-.53-2.38,0-3.89,3.53-3.89,6.62,0,2.06.68,3.53,2.3,3.53.91,0,1.64-.44,2.06-.75l.21.92Z"/><path d="m180.74,111.59c-.41.37-1.27.92-2.48.92-2.07,0-2.84-2.24-2.84-4.51,0-3.47,1.84-7.59,4.27-7.59,1.49,0,2.12,1.31,2.12,2.65,0,3.11-2.66,3.73-5.52,3.68-.12.61-.09,2.04.11,2.84.34,1.33,1.05,1.98,1.98,1.98,1.03,0,1.73-.49,2.14-.83l.23.86Zm-1.19-10.23c-1.47,0-2.7,2.18-3.16,4.46,2.41.04,4.62-.4,4.62-2.68,0-1.19-.62-1.79-1.47-1.79Z"/><path id="Z" class="cls-1" d="m82.62,116.63L145.85,6.85v-.36h-55.18l.07-6.49h64.57l.11,4.51-63.59,110.14v.36h92.12l-1.26,6.49h-100.97l.9-4.87Z"/><path class="cls-1" d="m76.79,121.5l11.54-82.56c1.44-10.64,3.06-18.57,4.69-28.84h-.9c-3.79,10.64-7.93,21.27-12.8,31.91l-35.87,79.5h-3.97l-5.77-81.66c-.72-11.36-.9-19.47-.9-29.74h-.54c-2.52,10.64-3.61,18.21-6.13,29.02L7.21,121.5H0L29.2,0h8.47l5.59,78.06c.72,9.55,1.08,16.04.9,26.5h.72c3.79-10.46,7.03-17.13,11.36-26.86L90.85,0h9.37l-16.4,121.5h-7.03Z"/></g></svg>