<svg xmlns="http://www.w3.org/2000/svg" viewBox="0 0 32 40" x="0px" y="0px"><g data-name="4 Size"><path d="M15.5,15v2a1.5,1.5,0,0,1-3,0v-.5h-2v7H11a1.5,1.5,0,0,1,0,3H7a1.5,1.5,0,0,1,0-3h.5v-7h-2V17a1.5,1.5,0,0,1-3,0V15A1.5,1.5,0,0,1,4,13.5H14A1.5,1.5,0,0,1,15.5,15ZM28,5.5H14.69A1.5,1.5,0,0,0,13.19,7V9a1.5,1.5,0,0,0,3,0V8.5h3.66v15h-.5a1.5,1.5,0,0,0,0,3h4a1.5,1.5,0,0,0,0-3h-.5V8.5H26.5V9a1.5,1.5,0,0,0,3,0V7A1.5,1.5,0,0,0,28,5.5Z"/></g><text x="0" y="47" fill="#000000" font-size="5px" font-weight="bold" font-family="'Helvetica Neue', Helvetica, Arial-Unicode, Arial, Sans-serif">Created by Ricons</text><text x="0" y="52" fill="#000000" font-size="5px" font-weight="bold" font-family="'Helvetica Neue', Helvetica, Arial-Unicode, Arial, Sans-serif">from the Noun Project</text></svg>