<?xml version="1.0" encoding="utf-8"?>
<!-- Generator: Adobe Illustrator 27.3.1, SVG Export Plug-In . SVG Version: 6.00 Build 0)  -->
<svg version="1.1" xmlns="http://www.w3.org/2000/svg" xmlns:xlink="http://www.w3.org/1999/xlink" x="0px" y="0px"
	 viewBox="0 0 300 300" style="enable-background:new 0 0 300 300;" xml:space="preserve">
<style type="text/css">
	.st0{fill:#FFFFFF;}
	.st1{fill:none;stroke:#020203;stroke-width:2;stroke-miterlimit:2.8284;}
</style>
<g id="_x31_._Cutout">
</g>
<g id="_x32_._Skizzen">
</g>
<g id="_x33_._Quadrat">
	<path d="M33.6,286.8H269c1,0,1.8-0.8,1.8-1.8V49.6c0-1.6-2-2.4-3.1-1.3L32.3,283.7C31.2,284.9,32,286.8,33.6,286.8z"/>
	<polygon class="st0" points="109.3,255.5 236.1,255.5 236.1,128.6 199.8,164.9 	"/>
	<g>
		<polygon points="270.8,5.2 270.8,5.2 270.8,5.2 		"/>
		<path d="M119.2,79.2c-6.4,3.1-14.1,1.8-19.1-3.2L29.2,5.2l0,0h0v237.2c0,1.6,2,2.4,3.1,1.3L263,12.9c1.5-1.5-0.2-3.8-2.1-2.9
			L119.2,79.2z"/>
	</g>
</g>
</svg>
