<?xml version="1.0" encoding="utf-8"?>
<!-- Generator: Adobe Illustrator 27.3.1, SVG Export Plug-In . SVG Version: 6.00 Build 0)  -->
<svg version="1.1" xmlns="http://www.w3.org/2000/svg" xmlns:xlink="http://www.w3.org/1999/xlink" x="0px" y="0px"
	 viewBox="0 0 300 300" style="enable-background:new 0 0 300 300;" xml:space="preserve">
<style type="text/css">
	.st0{fill:#FFFFFF;}
	.st1{fill:none;stroke:#020203;stroke-width:2;stroke-miterlimit:2.8284;}
</style>
<g id="_x31_._Cutout">
</g>
<g id="_x32_._Skizzen">
</g>
<g id="_x33_._Quadrat">
	<path d="M22.3,295.2h258.3c1.1,0,2-0.9,2-2V34.9c0-1.8-2.2-2.7-3.4-1.4L20.9,291.7C19.6,293,20.5,295.2,22.3,295.2z"/>
	<polygon class="st0" points="95.5,265 251,265 251,109.5 206.5,154 	"/>
	<g>
		<polygon points="282.6,4.8 282.6,4.8 282.6,4.8 		"/>
		<path d="M116.2,86.1c-7,3.4-15.5,2-21-3.5L17.5,4.9l0,0h-0.1v260.3c0,1.8,2.2,2.7,3.4,1.4L274,13.4c1.6-1.6-0.3-4.2-2.3-3.2
			L116.2,86.1z"/>
	</g>
</g>
</svg>
