<?xml version="1.0" encoding="UTF-8"?><svg xmlns="http://www.w3.org/2000/svg" width="360" height="200" viewBox="0 0 360 200"><defs><style>.cls-1{fill:#b2b2b2;}.cls-2{fill:#dadada;}.cls-3{fill:#706f6f;}.cls-4{fill:#c6c6c6;}.cls-5{fill:#1d1d1b;}.cls-6{fill:#ededed;}</style></defs><g id="big_back"><path id="MJMAIN-2200" class="cls-6" d="m3.7,13.38c0-1.19.38-2.05,1.13-2.59.76-.54,1.46-.81,2.1-.81,1.29,0,2.27.76,2.91,2.27s3.02,7.61,7.12,18.29l7.12,18.78h49.21l6.96-18.62c1.08-2.91,2.21-5.94,3.4-9.06s2.16-5.61,2.91-7.45c.76-1.83,1.13-2.75,1.13-2.75.54-.97,1.56-1.46,3.08-1.46,1.94.22,2.91,1.29,2.91,3.24,0,.43-7.01,19.05-21.04,55.85-14.03,36.8-21.21,55.36-21.53,55.68-.54.76-1.35,1.13-2.43,1.13s-1.89-.38-2.43-1.13c-.32-.43-7.45-18.94-21.37-55.52C10.99,32.64,3.92,14.03,3.7,13.38Zm67.01,42.57c0-.11-7.34-.16-22.01-.16s-22.01.05-22.01.16l22.01,57.46,22.01-57.46Z"/><path id="MJMAIN-2203" class="cls-6" d="m295.43,105.4v-1.67c0-1.11.6-1.97,1.8-2.57h53.53c.86.68,1.41,1.33,1.67,1.93v85.23c-.26.43-.81,1.03-1.67,1.8l-26.7.13h-26.83c-1.2-.6-1.8-1.45-1.8-2.57s.6-1.97,1.8-2.57h50.06v-36.84h-48.26c-1.2-.6-1.8-1.45-1.8-2.57s.6-1.97,1.8-2.57h48.26v-36.84h-50.06c-1.2-.6-1.8-1.45-1.8-2.57v1.67Z"/><path id="MJMAIN-21A6" class="cls-6" d="m17.58,164.52v8.26c0,3.11-.18,5.27-.54,6.46s-1.38,1.8-3.05,1.8-2.69-.66-3.05-1.98-.6-4.67-.72-10.05v-8.98c0-4.79.06-8.98.18-12.57,0-20.47.12-30.94.36-31.42.48-1.44,1.56-2.15,3.23-2.15,1.56,0,2.51.54,2.87,1.62s.6,3.17.72,6.28v22.08h132.87c-13.89-10.41-22.44-23.76-25.68-40.04v-.54c0-.24-.06-.42-.18-.54,0-1.44,1.02-2.15,3.05-2.15h.54c1.08,0,1.8.06,2.15.18s.72.36,1.08.72.54.9.54,1.62.18,1.68.54,2.87.84,2.69,1.44,4.49c2.63,8.02,7,15.2,13.11,21.55s13.23,10.83,21.37,13.47c1.08.36,1.62,1.02,1.62,1.98,0,.72-.3,1.26-.9,1.62s-2.03.96-4.31,1.8-4.55,1.98-6.82,3.41c-4.91,3.11-9.16,6.7-12.75,10.77s-6.28,8.08-8.08,12.03-3.05,6.94-3.77,8.98c-.72,2.03-1.2,3.89-1.44,5.57-.24,1.2-.54,1.92-.9,2.15-.36.24-1.32.42-2.87.54-2.39,0-3.59-.66-3.59-1.98,0-.84.3-2.33.9-4.49,3.83-15.08,12.15-27.35,24.96-36.81H17.58v13.47Z"/><path id="MJMAIN-22A5" class="cls-6" d="m198.93,134.06c0-.06.03-.15.09-.27s.12-.21.18-.27.15-.18.27-.36.24-.27.36-.27.27-.06.45-.18.39-.15.63-.09c.66.12,1.19.57,1.61,1.34v54.8h26.73c.89.48,1.34,1.07,1.34,1.79s-.45,1.31-1.34,1.79h-56.94c-.06,0-.18-.06-.36-.18-.18-.12-.42-.33-.72-.63-.3-.3-.42-.63-.36-.98s.18-.69.36-.98c.18-.3.39-.51.63-.63.24-.12.39-.18.45-.18h26.64v-54.71Z"/><path id="MJMAIN-39E" class="cls-6" d="m279.83,31.3l1.02-21.19c0-.08,11.76-.13,35.28-.13s35.28.04,35.28.13l1.02,21.19c0,.08-.85.13-2.54.13s-2.54-.08-2.54-.25c0-1.61-.17-3.6-.51-5.97s-.8-3.72-1.4-4.06c-1.18-.42-10.96-.63-29.32-.63s-28.13.21-29.32.63c-.59.25-1.06,1.57-1.4,3.93s-.51,4.4-.51,6.09c0,.17-.85.25-2.54.25s-2.54-.04-2.54-.13Zm11.68,31.6v-23.48h5.08v6.47h39.09v-6.47h5.08v23.48h-5.08v-6.47h-39.09v6.47h-5.08Zm-11.3,33l-1.02-22.84h2.54c1.69,0,2.54.08,2.54.25,0,3.81.3,6.9.89,9.26.25,1.02.51,1.65.76,1.9s.8.42,1.65.51c2.45.25,11.97.38,28.56.38s26.19-.13,28.56-.38c.85-.08,1.4-.25,1.65-.51s.51-.89.76-1.9c.59-2.37.89-5.46.89-9.26,0-.17.85-.25,2.54-.25h2.54l-1.02,22.84h-71.83Z"/></g><g id="very_light"><path class="cls-2" d="m270.04,134.89c-.41-.13-.95-.25-1.55-.32-3.34-.32-5.66,1.56-6.67,3.95l.07.02c.97-.76,2.44-1.21,4.11-.76,2.67.71,4.03,3.14,3.24,6.09-.74,2.76-3.3,4.81-6.43,3.97-3.22-.86-4.66-3.93-3.61-7.85.79-2.97,2.49-5.02,4.37-6.11,1.58-.89,3.46-1.21,5.42-.93.63.07,1.14.18,1.51.28l-.45,1.67Zm-6.8,11.37c1.74.47,3.31-.68,3.89-2.83.58-2.16-.3-3.78-2.18-4.29-1.23-.33-2.57.13-3.42,1.07-.2.19-.38.47-.48.84-.62,2.49.03,4.63,2.16,5.2h.02Z"/><path class="cls-2" d="m300.55,56.52c1.3-.72,2.42-1.29,3.36-1.7.94-.41,1.81-.62,2.62-.62,2.06-.01,3.81.45,5.25,1.39,1.44.94,2.5,2.12,3.2,3.52s1.04,2.83,1.05,4.29c0,1.24-.32,2.4-1,3.49-.67,1.09-1.54,1.64-2.59,1.64-.76,0-1.68-.29-2.77-.89-1.09-.6-2.34-1.48-3.75-2.64-1.41-1.17-3.01-2.61-4.8-4.33-2.65,2.29-5.06,3.45-7.25,3.47-1.55.01-2.89-.3-4.01-.95-1.13-.64-2.06-1.61-2.8-2.89-.74-1.29-1.28-2.87-1.64-4.75-.35-1.88-.54-4.1-.56-6.65-.01-1.63.05-2.76.17-3.39.13-.64.45-.96.98-.96.16,0,.44.08.85.25.41.17.89.41,1.43.72s1.06.66,1.54,1.05c.26.2.43.41.49.64.06.22.08.61.03,1.17.46-.28.84-.42,1.14-.43.42,0,.84.2,1.28.61s1.2,1.22,2.28,2.45c1.09,1.22,2.09,2.28,3.01,3.17.33.32.74.71,1.24,1.18.5.46.91.85,1.24,1.18Zm-1.99,1.41c-.76-.85-1.65-1.85-2.67-3-1.01-1.15-1.93-2.19-2.74-3.12-.81-.92-1.41-1.57-1.8-1.94-.39-.37-.64-.55-.75-.55-.43,0-.64,1.03-.63,3.09.02,2.6.4,4.56,1.13,5.87.74,1.31,1.76,1.96,3.06,1.95.56,0,1.22-.21,1.99-.62.77-.41,1.57-.97,2.4-1.69Zm4.63,1.2c2.21,2.06,4.11,3.66,5.68,4.8,1.57,1.14,2.58,1.71,3.03,1.71,1.01,0,1.5-.89,1.49-2.64,0-.56-.14-1.15-.42-1.79-.28-.63-.66-1.2-1.14-1.71-.48-.51-1.09-.92-1.83-1.25-.74-.33-1.55-.49-2.43-.48-1.69.01-3.15.46-4.38,1.36Z"/><path class="cls-2" d="m92.34,114.65c-.06,1.18,3.14-.5,9.6-5.04.97-.68,1.48-1.42,1.54-2.22.06-.8-.45-2.53-1.54-5.19l1.34-.94,5.04,8.51-17.41,12.24-.74-1.05,1.13-10.41c.74-5.63,1.12-9.12,1.14-10.44.02-1.89-.17-3.57-.58-5.04-.41-1.46-.95-2.68-1.63-3.64-1.12-1.59-2.44-2.54-3.97-2.83-1.52-.29-3.07.11-4.64,1.21-1.76,1.24-2.9,2.67-3.43,4.3-.52,1.63-.45,2.91.21,3.86.23.32.48.51.77.56.27.06.72-.03,1.33-.26,1.53-.61,2.72-.3,3.58.91.46.66.63,1.36.49,2.11-.14.74-.55,1.36-1.23,1.84-.79.56-1.74.68-2.85.36-1.11-.31-2.08-1.06-2.91-2.24-.93-1.32-1.43-2.76-1.51-4.32-.08-1.56.32-3.17,1.21-4.83.89-1.66,2.12-3.04,3.7-4.16,1.57-1.1,3.26-1.79,5.07-2.06,1.82-.27,3.44-.09,4.89.53,1.44.62,2.62,1.58,3.53,2.88.63.89,1.1,1.92,1.41,3.08.31,1.16.42,2.36.34,3.62-.14,2.17-.45,4.16-.94,5.97l-2.09,7.92c-.53,2-.82,3.59-.88,4.77Z"/><path class="cls-2" d="m36.34,40.67l1.34-2.12c.5-.79.94-1.41,1.32-1.85.56-.65,1.13-1.19,1.72-1.63l1.43,1.97c-.64.47-1.17.97-1.59,1.49-.43.53-1.05,1.42-1.84,2.68l-2.23,3.54-1.53-.96-2.06-6.06c-.38.71-.82,1.3-1.35,1.75-.52.46-1.07.77-1.64.94-.57.17-1.16.25-1.77.24-.62-.01-1.21-.12-1.78-.31-.57-.19-1.12-.45-1.63-.78-3.01-1.9-3.88-5.09-2.61-9.57.51-1.82,1.31-3.65,2.4-5.49l2.08,1.31c-.94,1.73-1.59,3.2-1.96,4.42-.47,1.58-.6,2.97-.38,4.17.21,1.2.9,2.17,2.06,2.9,1,.63,1.94.84,2.81.62.87-.22,1.61-.8,2.21-1.74.41-.64.71-1.43.91-2.36l1.68.16,2.43,6.68Z"/><path class="cls-2" d="m228.89,33.43l-.66-1.71,9.36-3.59-.62,2.2-8.08,3.1Zm1.06,2.77l-1.61-4.2,1.92-.74,1.61,4.2-1.92.74Zm6.1,7.16l-.51-14.44,2.06-.79.51,14.44-2.06.79Z"/><path class="cls-2" d="m214.91,106.33c1.57-1.19,3.24-1.45,5.02-.77,1.78.67,3.62,2.27,5.53,4.78,1.9,2.5,2.94,4.7,3.11,6.6.17,1.89-.52,3.44-2.09,4.63-1.57,1.19-3.24,1.45-5.01.77-1.78-.68-3.61-2.27-5.52-4.77-1.91-2.51-2.95-4.71-3.13-6.6-.18-1.89.52-3.43,2.08-4.62Zm1.2,1.57c-.92.7-1.24,1.72-.93,3.07.3,1.34,1.23,3.03,2.78,5.07,1.54,2.03,2.92,3.37,4.13,4.02,1.21.65,2.28.62,3.21-.08.93-.71,1.24-1.73.94-3.07-.3-1.34-1.22-3.03-2.77-5.06-1.55-2.04-2.93-3.38-4.14-4.03-1.21-.65-2.28-.62-3.21.09Zm3.25,6.99c-.27-.36-.38-.77-.33-1.22.05-.45.26-.81.61-1.08.37-.28.78-.39,1.24-.33.46.06.83.28,1.1.64.28.37.39.78.32,1.23-.07.45-.28.82-.66,1.11-.37.28-.77.39-1.2.32-.43-.06-.8-.28-1.08-.66Z"/><path class="cls-2" d="m242.06,74.16v-3.82c-2.19-.04-4.46-.72-5.79-1.66l.91-2.53c1.36.91,3.33,1.63,5.44,1.63,2.69,0,4.5-1.55,4.5-3.71s-1.47-3.37-4.27-4.5c-3.86-1.51-6.24-3.25-6.24-6.54s2.23-5.52,5.71-6.09v-3.82h2.34v3.67c2.27.08,3.82.68,4.92,1.32l-.95,2.5c-.79-.45-2.34-1.29-4.76-1.29-2.91,0-4.01,1.74-4.01,3.25,0,1.97,1.4,2.95,4.69,4.31,3.89,1.59,5.86,3.55,5.86,6.92,0,2.99-2.08,5.79-5.97,6.43v3.93h-2.38Z"/><path class="cls-2" d="m112.37,166.41l14.05-5.52.85.69-14.06,5.51-.83-.67Zm8.43-10.04c1.36,1.1,1.41,2.9-.11,4.78-1.68,2.07-3.6,2.22-4.88,1.19-1.23-.99-1.48-2.85.1-4.83,1.59-1.97,3.56-2.2,4.87-1.15h.02Zm-.73.74c-.82-.66-2.05-.03-3.06,1.21-1.04,1.22-1.35,2.57-.52,3.24.88.71,2.03.09,3.09-1.21.97-1.2,1.43-2.48.51-3.23h-.02Zm3.85,8.53c1.36,1.1,1.4,2.89-.12,4.76-1.68,2.08-3.6,2.22-4.86,1.21-1.23-.99-1.49-2.84.09-4.82,1.61-1.98,3.58-2.22,4.88-1.17h.01Zm-.73.74c-.82-.66-2.07-.05-3.07,1.2-1.03,1.25-1.32,2.59-.5,3.25.88.71,2.03.09,3.09-1.21.97-1.2,1.43-2.48.51-3.23h-.02Z"/><path id="MJMATHI-3C3" class="cls-2" d="m224.13,86.94c-1.12-1.05-1.67-2.26-1.67-3.65s.52-2.65,1.55-3.78c1.54-1.64,3.57-2.61,6.1-2.9,2.52-.29,4.67.22,6.43,1.54.03,0,1.19,1.07,3.47,3.21l3.4,3.19s.01.07.03.12l.05.14s.03.09.03.12,0,.08,0,.14,0,.1,0,.1c0,0-.01.05-.04.14s-.05.14-.07.12-.05.03-.09.15-.08.17-.11.17c-.68.72-1.55.58-2.62-.42l-.42-.39c-.16-.15-.27-.27-.32-.35l-1.48-1.39-.11.36c-.29.9-.8,1.74-1.52,2.51-1.69,1.81-3.83,2.77-6.41,2.88-2.58.12-4.65-.56-6.21-2.02Zm11.04-3.03c1.23-1.31,1.15-2.63-.25-3.94-2.04-1.91-4.7-1.72-7.99.57-.08.05-.13.09-.16.12-.7.48-1.24.92-1.61,1.32-.77.82-1.1,1.59-1,2.3.1.71.41,1.33.92,1.83.89.83,2.06,1.21,3.53,1.13.94-.05,1.94-.34,3.01-.89,1.07-.54,1.86-1.03,2.39-1.46s.92-.76,1.16-.99Z"/><path id="MJMAIN-3A9" class="cls-2" d="m317,155.13c-1.65-.44-3.1-1.19-4.36-2.25-1.26-1.06-2.22-2.25-2.87-3.58-.65-1.33-1.14-2.72-1.47-4.17s-.5-2.85-.5-4.18c0-1.33.14-2.46.42-3.4l.2-.76c.4-1.48.65-2.35.75-2.61,1.64-3.99,3.99-6.81,7.02-8.48s6.06-2.12,9.06-1.35c2.08.56,4.02,1.64,5.83,3.24s3.64,3.46,5.52,5.58c1.88,2.12,3.57,3.66,5.08,4.6l.15.04.59-2.22c.38-1.55.59-2.52.62-2.91s-.06-.72-.27-.99c-.26-.25-.91-.64-1.95-1.17s-1.64-.82-1.77-.85l-.24-.12.54-2.02.1.03,4.1,2.02c2.75,1.28,4.14,1.94,4.17,1.98l.1.03-1.24,4.63-.86,3.22c-.24.91-.44,1.43-.58,1.57s-.45.15-.92.02c-2.32-.62-5.71-2.39-10.18-5.32-4.47-2.93-7.94-4.74-10.42-5.44-1.91-.51-3.67-.66-5.28-.44s-2.94.71-4.01,1.46-1.9,1.6-2.51,2.51-1.09,1.92-1.45,3.01c-.26.97-.35,1.99-.28,3.06s.34,2.22.8,3.45c.46,1.24,1.34,2.38,2.65,3.41s2.97,1.82,4.98,2.36c2.55.68,6.51.88,11.88.59s9.16-.14,11.38.46c.44.12.74.32.91.62l-2.51,9.37-.1-.03s-1.58-.1-4.6-.37l-4.56-.3-.1-.03.54-2.02.27.02s.33.04.9.08,1.2.07,1.92.08c.72.01,1.19,0,1.42-.05.28-.1.5-.33.67-.68s.49-1.31.98-2.87l.59-2.22-.15-.04c-1.79.1-4.01.58-6.65,1.46s-5.17,1.55-7.56,2.02-4.64.45-6.73-.08Z"/><path id="MJMAIN-398" class="cls-2" d="m164.59,62.7c0-3.09.56-5.96,1.68-8.61,1.12-2.65,2.57-4.81,4.36-6.48s3.76-2.98,5.92-3.91c2.16-.93,4.36-1.4,6.59-1.4,4.95,0,9.29,1.94,13.02,5.81,3.73,3.87,5.61,8.72,5.64,14.53,0,3.02-.54,5.81-1.62,8.38s-2.5,4.73-4.25,6.48c-1.75,1.75-3.74,3.07-5.98,3.97s-4.51,1.38-6.82,1.45-4.56-.39-6.76-1.4c-2.2-1.01-4.19-2.33-5.98-3.97-1.79-1.64-3.19-3.78-4.19-6.43s-1.55-5.46-1.62-8.44Zm30.96.06c0-3.32-.37-6.22-1.12-8.72-.75-2.5-1.77-4.41-3.07-5.76-1.3-1.34-2.65-2.33-4.02-2.96s-2.85-.95-4.41-.95c-1.94,0-3.71.56-5.31,1.68s-2.87,2.46-3.8,4.02c-1.97,3.02-2.96,7.25-2.96,12.68,0,2.42.15,4.36.45,5.81.48,2.87,1.45,5.29,2.91,7.26,1.45,1.97,3.24,3.41,5.36,4.3,1.19.45,2.38.67,3.58.67,1.01,0,2.01-.15,3.02-.45s2.1-.86,3.3-1.68c1.19-.82,2.2-1.88,3.02-3.19.82-1.3,1.55-3.05,2.18-5.25s.93-4.69.89-7.49Zm-21.63,4.25v-8.88h2.24v1.9h14.03v-1.9h2.24v8.88h-2.24v-1.9h-14.03v1.9h-2.24Z"/><path id="MJMATHI-3C1" class="cls-2" d="m234.56,165.32c-1.37.52-2.33.18-2.89-1.03-.16-.41-.81-5.2-1.95-14.36-1.14-9.16-1.67-13.89-1.6-14.2-.21-2.53.08-5.18.86-7.95,1.53-4.67,4.03-8.01,7.49-10l.5-.19c.25-.1.45-.2.6-.3,3.02-1.16,5.72-1.06,8.1.31,2.38,1.37,4.12,3.5,5.23,6.4.91,2.36,1.29,4.85,1.16,7.46s-.67,4.98-1.62,7.1c-.94,2.12-2.11,4.02-3.51,5.69-1.4,1.68-2.85,2.78-4.36,3.31l-.68.26-.43.17c-2.11.81-4.19.54-6.23-.82l-.45-.25.99,7.6c.51,4.41.78,6.92.82,7.52s-.04,1.13-.24,1.59c-.44.83-1.03,1.39-1.78,1.68Zm9.9-42.13c-.59-1.53-1.42-2.64-2.49-3.32s-2.29-.76-3.65-.24c-1.45.56-2.67,1.71-3.66,3.47s-1.54,3.77-1.67,6.05c-.09,1.51.16,4.5.74,8.98l.57,4.63c1.91,2.88,4.25,3.78,7.03,2.72,1.57-.6,2.82-1.94,3.74-4,.89-1.77,1.26-4.19,1.13-7.27-.14-3.08-.4-5.55-.77-7.4-.38-1.85-.7-3.06-.96-3.62Z"/><path id="MJMATHI-3B4" class="cls-2" d="m198.97,38.54c-1.57-.99-2.52-2.34-2.85-4.05s-.05-3.29.82-4.75c.39-.55,1.04-1.28,1.96-2.21s1.7-1.73,2.38-2.43,1.07-1.06,1.18-1.08c.65-.43,1.31-.44,1.98-.02.6.38,1.03.96,1.3,1.73s.16,1.53-.31,2.27-1.51,1.32-3.2,1.84-2.83,1.21-3.41,2.06-.76,1.65-.53,2.4c.23.75.56,1.29,1.01,1.62,1.47.93,5.28,1.02,11.43.26,4.23-.47,7.8.22,10.71,2.06,4.12,2.6,7.02,5.86,8.71,9.79,1.69,3.92,1.77,7.14.24,9.63l-.22.35c-1.5,2.38-3.49,3.82-5.96,4.32-2.47.5-4.93.05-7.37-1.35-4.45-2.81-7.07-7.16-7.86-13.04-.19-1.99,0-4.24.59-6.72-.03-.02-.36-.06-.98-.12s-1.31-.15-2.08-.26-1.61-.27-2.52-.46c-.91-.2-1.8-.46-2.67-.77s-1.66-.67-2.35-1.06Zm21.43,19.36c1.57.99,3.08,1.38,4.53,1.17,1.44-.21,2.63-1.05,3.56-2.53.61-.97.76-2.1.44-3.37-.32-1.28-.95-2.5-1.9-3.66s-1.88-2.17-2.79-3.03-1.74-1.54-2.49-2.06c-1.17-.74-2.35-1.32-3.54-1.74s-2.1-.67-2.75-.76-1.86-.24-3.64-.47l-.12.63c-.43,1.79-.33,3.63.3,5.53s1.58,3.57,2.86,5.04c1.28,1.46,2.37,2.59,3.26,3.4s1.66,1.42,2.27,1.85Z"/><path id="MJMATHI-3B1" class="cls-2" d="m236.06,179.4c0-4.28,1.61-8.04,4.84-11.26,3.23-3.23,6.78-4.84,10.64-4.84,2.63,0,4.73.75,6.31,2.25,1.58,1.5,2.65,3.34,3.21,5.52.23,1.09.36,2.35.39,3.77v1.63c1.84-2.78,3.25-5.89,4.22-9.35.15-.53.26-.83.34-.9s.38-.13.9-.17c.79,0,1.18.15,1.18.45,0,.34-.17,1.07-.51,2.2s-1.01,2.72-2.03,4.79c-1.01,2.07-2.16,3.94-3.44,5.63l-.62.79.06,1.35c.08,2.1.23,3.53.45,4.28s.58,1.15,1.07,1.18c.53-.08,1.01-.28,1.46-.62s.77-.77.96-1.3c.08-.26.17-.41.28-.45s.39-.08.84-.11c.75,0,1.13.15,1.13.45,0,.23-.11.58-.34,1.07-.45.9-1.11,1.61-1.97,2.14-.86.53-1.69.81-2.48.84h-.39c-2.52,0-4.22-1.35-5.13-4.06l-.17-.39-.62.45c-.38.3-.94.68-1.69,1.13s-1.6.88-2.53,1.3c-.94.41-2.03.79-3.27,1.13s-2.44.51-3.6.51c-2.97,0-5.29-.94-6.98-2.82-1.69-1.88-2.53-4.07-2.53-6.59Zm9.8,7.32c1.84,0,3.68-.39,5.52-1.18s3.21-1.6,4.11-2.42l1.35-1.24c-.08-5.37-.21-8.71-.39-10.03-.53-4.32-2.25-6.48-5.18-6.48-2.59,0-4.86,1.37-6.81,4.11-1.01,1.5-1.84,3.53-2.48,6.08-.64,2.55-.98,4.51-1.01,5.86,0,1.84.47,3.17,1.41,4s2.1,1.26,3.49,1.3Z"/><path id="MJMATHI-3C0" class="cls-2" d="m229.13,172.3c.64.45.74.98.31,1.6l-.22.31-.92.53c-3.49,1.98-6.31,3.83-8.46,5.55l-.7.52.9.63c.71.5,1.24.83,1.58.98s.83.23,1.47.23c.3.01.62-.01.98-.07s.67-.13.95-.22c.28-.08.45-.14.49-.16.05,0,.2.1.44.27.36.25.47.47.34.66-.08.11-.49.32-1.23.61-.74.3-1.66.52-2.77.66s-2.03.04-2.75-.33c-.16-.05-2.29-1.52-6.38-4.38-3.01-2.1-4.54-3.19-4.6-3.26-.28-.39-.29-.79-.01-1.18.41-.58.98-.77,1.73-.55.14.04.8.48,1.99,1.3l1.8,1.26.42-.42c1.17-1.2,2.07-2.24,2.69-3.12.68-.98,1.21-1.91,1.58-2.8.37-.89.61-1.62.73-2.18.11-.56.2-.89.27-.99.22-.32.57-.53,1.03-.63s.9,0,1.31.29c.21.14.36.29.45.44s.08.48-.02.99-.35,1.18-.73,2.01c-.1.18-.38.6-.84,1.26-.64.92-1.42,1.85-2.33,2.78-.91.93-1.68,1.68-2.32,2.24s-1,.87-1.07.93l2.76,1.93.11-.09c.04-.06.74-.67,2.09-1.85,1.36-1.18,2.82-2.41,4.39-3.69,1.57-1.28,2.5-1.99,2.79-2.12.58-.38,1.16-.36,1.76.06Z"/><path id="MJMATHI-3B2" class="cls-2" d="m271.99,99.45c-.26-.1-.4-.19-.43-.25-.04-.09-.91-5.45-2.61-16.07-1.7-10.62-2.56-16.18-2.59-16.66-.21-2.34-.12-4.51.29-6.51.4-2,.92-3.54,1.57-4.64,1.09-2.15,2.6-3.63,4.54-4.46l.09-.04c1.88-.8,3.67-.88,5.37-.25,1.7.63,2.93,1.85,3.7,3.63,1.36,3.18.9,6.49-1.36,9.92l.84.34c2.2.89,3.82,2.54,4.85,4.96,1.46,3.42,1.38,6.8-.24,10.14-1.62,3.34-4.03,5.71-7.23,7.11-.91.39-1.78.61-2.61.68-.83.07-1.53.02-2.09-.13-.57-.15-1.05-.36-1.44-.62s-.7-.47-.91-.63-.33-.22-.34-.18l1.99,12.73c.02.21-.25.43-.79.66l-.59.25Zm2.62-34.67c1.18-.5,2.38-.8,3.59-.89l.17-.23.18-.45.26-.65c.12-.3.21-.59.27-.87s.11-.62.15-1.03.07-.85.08-1.32-.04-.97-.15-1.49-.23-1.12-.33-1.79c-.06-.3-.24-.81-.55-1.54-.23-.55-.4-.89-.49-1.03-1.11-1.35-2.59-1.63-4.44-.85-1.27.54-2.31,1.42-3.12,2.62s-1.34,2.52-1.59,3.95-.4,2.71-.46,3.84c-.05,1.13-.02,2.17.1,3.13.06.55.43,3.02,1.12,7.41.69,4.39,1.08,6.73,1.17,7.02.03.16.15.49.36.97.62,1.45,1.46,2.51,2.53,3.16,1.48.87,3.07.95,4.77.22,1.27-.54,2.46-1.5,3.56-2.86,1.1-1.36,1.7-3.16,1.79-5.38.05-1.24-.09-2.56-.4-3.96s-.61-2.44-.9-3.11c-.75-1.76-1.88-2.94-3.39-3.55-1.09.97-2.14,1.66-3.14,2.09l-.45.19c-2.39,1.02-3.79,1.06-4.19.12-.09-.21-.14-.44-.13-.69.06-1.03,1.28-2.05,3.64-3.05Z"/><path id="MJMAIN-2265" class="cls-2" d="m78.06,64.65c0-.13.05-.24.14-.34s.18-.14.24-.14c.13,0,1.36.54,3.7,1.63,2.34,1.09,4.66,2.19,6.96,3.29s3.46,1.66,3.46,1.68c.11.08.17.2.17.36s-.06.28-.17.36c-.03.03-2.37,1.14-7.01,3.34l-6.92,3.27h-.14c-.29-.03-.43-.19-.43-.48v-.07c-.02-.11.1-.24.36-.38.3-.16,1.5-.74,3.6-1.73,1.25-.59,2.29-1.08,3.12-1.46l5.96-2.83-6.39-3.03c-1.1-.53-2.39-1.14-3.84-1.82-1.41-.66-2.23-1.05-2.45-1.18s-.34-.28-.36-.46Zm.02,17.63c0-.16.12-.32.36-.48h13.9c.26.1.38.26.38.48,0,.19-.12.35-.36.48h-13.95c-.22-.11-.34-.27-.34-.48Z"/><path class="cls-2" d="m213.08,150.39l-1.82,4.49,2.84,1.68c.07-.29.14-.55.32-.99.37-.9.93-1.73,1.66-2.28.9-.71,2.22-1.06,3.71-.46,2.3.93,3.27,3.46,2.24,6.01-.52,1.28-1.33,2.22-1.92,2.64l-1.05-.89c.49-.37,1.24-1.18,1.67-2.25.61-1.5.16-3.18-1.42-3.82-1.53-.6-3.02-.03-3.98,2.33-.27.67-.41,1.22-.54,1.68l-5.34-3.05,2.29-5.63,1.34.54Z"/><path class="cls-2" d="m267.74,99.76c-1.03,1.29-3.36,3.09-6.35,4.07-6.41,2.08-10.95-.57-12.34-4.84-1.22-3.74.65-7.07,3.72-8.8l-.03-.08c-3.67-.12-6.08-1.93-6.97-4.68-1.05-3.25.31-7.14,5.57-8.85,2.88-.93,5.92-.79,7.65-.22l-.09,2.94c-1.42-.45-3.78-.72-5.92-.03-3.33,1.08-4.07,3.41-3.37,5.55,1.03,3.16,4.8,3.44,7.43,2.58l2.01-.66.88,2.71-2.01.66c-3.49,1.13-6.34,3.83-5.16,7.58.68,2.23,3.08,4.72,7.72,3.21,2.5-.82,4.55-2.62,5.37-3.61l1.89,2.47Z"/><path id="MJMATHI-3D5" class="cls-2" d="m114.69,15.29c0-.34.14-.62.45-.83l.46-.32.75-.53c.39.07.62.14.67.22.19.27,1.27,3.03,3.25,8.3.49,1.26,1.01,2.59,1.58,3.96.57,1.38.96,2.42,1.17,3.13l.42,1.08s.21-.06.56-.31,1.04-.56,2.09-.95,2.2-.71,3.45-.96c2.26-.38,4.48-.2,6.67.56s4.06,2.22,5.6,4.41,2.41,4.7,2.63,7.53c.21,2.83-.1,5.52-.95,8.07-.85,2.55-1.98,4.89-3.4,7.04-1.42,2.14-2.96,3.83-4.62,5.05l-.23.16,2.46,6.44c.39,1.04.88,2.28,1.48,3.69.56,1.44.86,2.32.9,2.63s-.09.61-.41.89l-.35.24c-.77.54-1.25.68-1.44.41-.13-.19-.99-2.31-2.58-6.36l-2.4-6.23s-.19.05-.5.27c-.19.13-.6.37-1.23.69-.63.33-1.68.67-3.16,1.02s-2.92.5-4.32.46-2.99-.45-4.74-1.23-3.22-2.09-4.41-3.95c-1.62-2.3-2.51-4.92-2.67-7.84-.16-2.93.23-5.67,1.18-8.23s2.11-4.87,3.48-6.92c1.37-2.05,2.8-3.6,4.3-4.66.19-.13.25-.29.18-.47l-3.21-8.24c-2.02-5.41-3.06-8.15-3.11-8.22Zm5.25,42.6c.92,1.31,1.94,2.28,3.08,2.91s2.28.92,3.44.85,2.09-.21,2.8-.42c.71-.21,1.47-.52,2.28-.92l.4-.28-9.9-25.47c-.15.11-.35.28-.59.5s-.69.77-1.35,1.63-1.25,1.74-1.77,2.62c-.52.89-.98,2.04-1.36,3.45s-.55,2.85-.5,4.31c.06,1.56.33,3.29.81,5.19.67,2.17,1.55,4.04,2.66,5.62Zm16.43-22.9c-1.03-1.46-2.21-2.49-3.55-3.1s-2.62-.79-3.84-.57-2.17.46-2.85.71-1.2.5-1.54.74l-.17.12,4.92,12.63,4.85,12.77c.05.08.1.1.14.07.31-.22.84-.76,1.6-1.64s1.34-1.69,1.74-2.43c1.14-1.89,1.84-3.91,2.12-6.05s.17-4.08-.3-5.81-.97-3.22-1.5-4.45-1.06-2.24-1.6-3.01Z"/><path id="MJMAIN-3A0" class="cls-2" d="m165.79,108.55c-.08.09-.14.15-.16.2s-.04.15-.05.29-.03.41-.05.78v.6s-.83,0-.83,0l-.09-12.74h.84s0,.6,0,.6c.02.49.04.8.06.93s.1.24.22.33l10.17-.07c.12-.07.19-.18.22-.31s.04-.45.05-.95v-.6s.83,0,.83,0v.2c-.03.26-.05,1.13-.03,2.63.01,1.64.04,2.52.07,2.63v.2s-.84,0-.84,0v-.6c-.02-.51-.04-.82-.07-.93s-.1-.22-.22-.34l-10.45.07.04,5.2,5.21-.04,5.23-.06c.12-.07.19-.18.22-.31.02-.13.04-.45.05-.95v-.6s.83,0,.83,0v.2c-.03.26-.05,1.13-.03,2.63.01,1.64.04,2.52.07,2.63v.2s-.84,0-.84,0v-.6c-.02-.51-.04-.82-.07-.93s-.1-.22-.22-.34l-10.17.07Z"/><path id="MJMATHI-65" class="cls-2" d="m188.78,158.96c-.27-.35-.45-.72-.56-1.1-.1-.38-.14-.74-.1-1.07s.12-.65.25-.95.27-.56.43-.78.33-.39.52-.53l.03-.02c.28-.21.57-.33.88-.35s.56.1.76.37c.42.56.36,1.18-.2,1.88-.24.31-.62.67-1.14,1.07-.23.17-.34.27-.34.29,0,.01.07.13.19.37s.23.43.34.59c.22.29.46.47.72.54s.52,0,.78-.18.51-.47.73-.83c.22-.36.35-.78.39-1.26,0-.1.02-.16.04-.18.02-.02.09-.02.18,0s.16.03.19.06.04.1.03.21-.04.27-.09.46c-.05.19-.12.4-.21.61s-.23.44-.41.68-.39.45-.63.63c-.49.37-.99.49-1.51.37-.52-.13-.95-.41-1.3-.86Zm1.79-4.07c-.28-.29-.61-.29-1,0-.2.16-.36.34-.47.56-.11.22-.17.43-.18.63s0,.4.02.58.06.34.11.45.07.18.09.21c0,0,.07-.04.19-.13.7-.53,1.13-.98,1.3-1.34s.15-.68-.06-.96Z"/><path id="MJMAIN-32" class="cls-2" d="m189.64,150.3c-.12.09-.24.12-.37.1-.13-.03-.24-.1-.32-.21-.24-.31-.32-.67-.27-1.07.06-.4.26-.74.61-1,.4-.3.82-.43,1.28-.39s.83.26,1.13.64c.14.19.24.4.28.64s.05.47.02.69-.08.51-.16.88c-.05.26-.12.62-.2,1.1l-.11.66.5-.37c.69-.52,1.04-.81,1.07-.87.02-.03-.07-.27-.29-.7v-.02s.25-.2.25-.2v.02s.14.24.38.66c.24.42.36.65.36.68v.02s-2.42,1.85-2.42,1.85l-.09-.12-.06-.08s-.04-.07-.04-.13,0-.18.02-.38c.02-.24.04-.44.05-.62,0-.07.02-.21.04-.41s.03-.34.04-.41.01-.19.03-.36c.01-.17.02-.29.01-.36,0-.07,0-.18,0-.31s0-.24-.02-.31-.03-.17-.05-.27-.04-.19-.07-.27-.07-.16-.1-.23-.08-.15-.14-.23c-.21-.28-.46-.46-.77-.55s-.59-.03-.87.18c-.14.11-.24.24-.3.4s-.07.29-.07.39.02.16.03.17c0,0,.02,0,.04-.02.08-.06.18-.09.31-.09s.25.07.35.21c.08.11.12.23.1.36s-.08.24-.21.34Z"/><path class="cls-2" d="m9.89,55.42l-.13.05-6.02,7.02-2.87-4.06,7.58-8.77,5.04-1.94,16.77,43.7-5.71,2.19-14.66-38.18Z"/><path class="cls-2" d="m116.59,30.01l-2.67,1.88-5.71-1.08c-13.59-2.72-20.35-3.51-25.24-.15-3.27,2.29-5.17,6-1.8,10.8,2.05,2.92,5.24,4.3,7.52,4.92l-2.09,3.54c-3.44-.91-7.06-3.1-9.66-6.81-4.87-6.93-2.17-13.18,2.43-16.42,5.94-4.17,13.76-3.24,25.05-1.05l4.18.9.1-.07-10.15-14.45,3.61-2.54,14.43,20.53Z"/><path class="cls-2" d="m21.28,177.63l.99-2.52,22.44-20.88,3.95,1.56-22.1,20.16-.03.09,13.82,5.45-1.25,3.17-17.82-7.02Z"/><path class="cls-2" d="m70.17,142.89l-11-9.13,1.42-2.6,10.99,9.15-1.41,2.58Zm8.46-6.39l-17.11-9.33,1.37-2.51,17.11,9.33-1.37,2.51Zm-8.46,6.39l-1.32-2.91,3.84-7.04,2.24,1.22-4.76,8.73Zm5.86-10.75l-2.24-1.22,1.01-1.86,2.24,1.22-1.01,1.86Z"/><path class="cls-6" d="m79.78,170.11c-3.8.36-6.45-1.2-7.82-3.51-2.52-4.25-.63-9.27,4.07-12.05,5.2-3.08,9.73-1.35,11.71,1.99,1.34,2.27,1.67,5.37-.71,8.89l.07.12c4.13-.66,7.58.47,9.51,3.74,2.76,4.67.61,10.17-4.51,13.2-5.62,3.32-10.98,1.98-13.3-1.94-2-3.38-1.4-6.98,1.08-10.33l-.12-.1Zm-4.54-5.79c1.59,2.68,4.47,2.93,8.05,1.93,1.85-2.15,2.65-4.85,1.21-7.29-1.27-2.15-3.87-3.62-7.13-1.69-3.01,1.78-3.49,4.74-2.13,7.05Zm17.93,7.51c-1.93-3.26-5.13-3.49-9.37-2.37-2.6,2.77-3.07,5.83-1.56,8.39,1.49,2.8,4.97,3.97,8.4,1.94,3.26-1.93,4.15-5.24,2.53-7.96Z"/><path id="MJMATHI-3C0-2" class="cls-2" d="m321.38,41.11c-.94,0-1.41-.46-1.41-1.37v-.46l.54-1.16c2.08-4.37,3.59-8.15,4.53-11.34l.33-1h-1.33c-1.05,0-1.8.04-2.24.12s-.98.35-1.62.79c-.3.19-.61.44-.91.75s-.57.6-.79.87c-.22.28-.35.44-.37.5-.06.03-.26.04-.62.04-.53,0-.79-.14-.79-.42,0-.17.26-.65.79-1.45.53-.8,1.29-1.66,2.28-2.57s1.98-1.44,2.95-1.58c.19-.06,3.31-.08,9.34-.08,4.43,0,6.7.01,6.81.04.55.19.83.58.83,1.16,0,.86-.44,1.44-1.33,1.74-.17.06-1.12.08-2.87.08h-2.66l-.12.71c-.33,1.99-.5,3.64-.5,4.94,0,1.44.12,2.73.37,3.86.25,1.14.51,2.02.79,2.66.28.64.42,1.02.42,1.16,0,.47-.19.91-.58,1.33s-.89.62-1.5.62c-.3,0-.55-.04-.75-.12s-.42-.42-.66-1-.47-1.41-.66-2.49c-.03-.25-.04-.86-.04-1.83,0-1.36.12-2.81.37-4.36.25-1.55.5-2.82.75-3.82s.39-1.55.42-1.66h-4.07l-.04.17c0,.08-.26,1.18-.79,3.28-.53,2.1-1.12,4.33-1.79,6.69-.66,2.35-1.09,3.7-1.29,4.03-.3.78-.9,1.16-1.79,1.16Z"/><path id="MJAMS-4E" class="cls-2" d="m169.77,133.04s-.1.11-.29.27l-1.92-.6c-1.31-.41-1.97-.64-1.99-.67,0-.02-.08-.21-.21-.6s-.35-.96-.65-1.74-.57-1.52-.81-2.23l-1.62-4.48-.9,2.86-.35,1.12c-.14.45-.24.74-.29.87-.25.81-.35,1.32-.3,1.56s.31.44.77.62c.25.08.41.17.47.26.06.16.02.3-.14.43l-.14.03-3.3-1.04c-.1-.12-.13-.24-.1-.35.03-.1.08-.18.15-.22.13,0,.24,0,.33.03.54.17.91.06,1.11-.33.07-.12.67-1.94,1.78-5.47l1.64-5.21c.14-.11.26-.15.36-.11.07.02.12.07.16.15.03.03.8,2.08,2.33,6.14l2.2,5.97,1.3-3.93.46-1.47c.18-.58.31-.96.38-1.15.23-.74.37-1.26.41-1.56.04-.3.01-.53-.09-.67s-.32-.28-.65-.4c-.26-.08-.42-.17-.47-.26-.09-.17-.04-.31.14-.43l.13-.04,3.45,1.09c.11.12.15.24.11.36-.07.21-.28.25-.65.14-.03,0-.11,0-.24-.04-.13-.03-.24-.04-.32-.02s-.18.04-.3.1-.21.16-.27.33c-.06.12-.57,1.69-1.52,4.7l-1.4,4.45.17.36c.19.36.44.62.74.78.28.09.39.22.33.41Zm-5.45-6.36l1.74,4.89,2.07.65-.17-.43s-.78-2.08-2.32-6.17c-1.54-4.09-2.32-6.15-2.34-6.18l-.11.23-.29.91-.39,1.22,1.8,4.87Z"/><path id="MJMATHI-3B8" class="cls-2" d="m44.15,52.01c0-3.97.76-8.16,2.28-12.56s3.58-8.2,6.19-11.39,5.32-5.02,8.12-5.49h.47c.27,0,.51-.02.7-.06,2.1.16,3.74,1.11,4.91,2.86,1.52,2.34,2.28,5.47,2.28,9.4,0,4.48-.88,9.03-2.63,13.67-1.75,4.63-3.99,8.43-6.72,11.39-2.73,2.96-5.33,4.44-7.83,4.44h-.41c-1.4,0-2.61-.39-3.62-1.17-1.01-.78-1.77-1.81-2.28-3.1-.51-1.28-.88-2.59-1.11-3.91-.23-1.32-.35-2.69-.35-4.09Zm20.33-21.38c0-3.97-1.03-5.96-3.1-5.96-1.4,0-2.76.88-4.09,2.63-1.32,1.75-2.41,3.74-3.27,5.96s-1.52,4.17-1.99,5.84-.72,2.65-.76,2.92c1.91.04,3.8.06,5.67.06l5.67-.06s.19-.68.47-1.93.58-2.8.93-4.67.51-3.47.47-4.79Zm-15.77,25.35c0,4.13,1.03,6.19,3.1,6.19.58,0,1.21-.19,1.87-.58.66-.39,1.46-1.13,2.39-2.22.93-1.09,1.87-2.78,2.8-5.08.93-2.3,1.87-5.14,2.8-8.53l.29-.99h-11.39c0,.12-.18.86-.53,2.22s-.66,2.88-.93,4.56-.41,3.15-.41,4.44Z"/><path id="MJMAIN-221E" class="cls-2" d="m206.91,16.86c0-3.3,1.05-6.22,3.15-8.77,2.1-2.55,4.78-3.84,8.04-3.88,3.3,0,6.39,1.14,9.28,3.43,1.42,1.16,2.81,2.62,4.16,4.39l.79,1.07.39-.56c3.9-5.55,8.27-8.32,13.1-8.32,3.22,0,5.87,1.27,7.93,3.82s3.11,5.55,3.15,9c0,3.22-1.03,6.13-3.09,8.72-2.06,2.59-4.8,3.9-8.21,3.94-3.22,0-6.28-1.14-9.17-3.43-1.42-1.16-2.81-2.62-4.16-4.39l-.79-1.07-.39.56c-3.9,5.55-8.27,8.32-13.1,8.32-3.22,0-5.87-1.27-7.93-3.82-2.06-2.55-3.11-5.55-3.15-9Zm47.92,0c0-2.55-.71-4.87-2.14-6.97s-3.45-3.15-6.07-3.15c-.79,0-1.56.09-2.31.28s-1.46.45-2.14.79-1.31.69-1.91,1.07-1.14.82-1.63,1.35-.96.99-1.41,1.41-.82.88-1.12,1.41-.58.94-.84,1.24-.47.62-.62.96l-.28.45,1.74,2.25c1.16,1.5,2.06,2.62,2.7,3.37.64.75,1.42,1.57,2.36,2.47s1.87,1.52,2.81,1.86,1.89.52,2.87.56c2.32,0,4.24-.92,5.74-2.76,1.5-1.84,2.25-4.03,2.25-6.58Zm-45.84.17c0,2.59.73,4.93,2.19,7.03,1.46,2.1,3.49,3.15,6.07,3.15,4.42,0,8.49-3,12.2-9l-1.74-2.25c-2.29-2.96-3.99-4.91-5.12-5.85-1.84-1.61-3.73-2.42-5.68-2.42-2.32,0-4.22.92-5.68,2.76s-2.21,4.03-2.25,6.58Z"/><path id="MJAMS-4E-2" class="cls-2" d="m261.77,162.56s-.15-.33-.33-.87l2.96-3.66c2.03-2.5,3.08-3.76,3.16-3.77.04,0,.53.01,1.48.05s2.4.07,4.35.08,3.8.06,5.56.14l11.15.3-5.47-4.43-2.14-1.73c-.86-.69-1.41-1.16-1.65-1.39-1.54-1.24-2.58-1.91-3.13-1.99s-1.22.3-2.02,1.15c-.39.48-.72.75-.97.8-.4,0-.68-.22-.82-.67l.05-.34,5.1-6.29c.35-.12.63-.09.85.09.2.16.32.33.35.51-.09.29-.21.52-.35.7-.84,1.03-.91,1.93-.23,2.71.19.26,3.65,3.12,10.4,8.58l9.95,8.06c.12.39.1.68-.06.88-.11.13-.26.21-.46.23-.1.03-5.23-.03-15.39-.19l-14.9-.33,7.47,6.21,2.8,2.27c1.1.89,1.83,1.5,2.18,1.82,1.41,1.14,2.42,1.89,3.04,2.24.62.36,1.14.48,1.55.38s.89-.46,1.42-1.08c.41-.51.73-.77.97-.8.44-.05.71.18.82.67l-.03.3-5.34,6.59c-.37.14-.66.12-.88-.06-.4-.32-.31-.83.26-1.53.01-.06.11-.22.28-.48.17-.26.28-.48.32-.67s.06-.43.04-.73-.17-.59-.48-.88c-.21-.24-3.19-2.69-8.94-7.35l-8.5-6.88-.93.07c-.95.1-1.73.41-2.34.94-.43.53-.82.65-1.17.36Zm18.56-6.41l-12.16-.41-3.2,3.95h1.09c.06.02,5.21.1,15.46.25,10.24.15,15.41.22,15.49.21l-.41-.44-1.75-1.41-2.34-1.89-12.17-.26Z"/></g><g id="small"><path class="cls-4" d="m187.5,172.96c.63,0,1.12.17,1.48.5.36.33.54.74.54,1.23,0,.66-.33,1.28-.98,1.86-.65.58-1.43.87-2.33.87-.72,0-1.28-.16-1.69-.48-.41-.32-.61-.65-.61-.99,0-.2.07-.37.2-.51.13-.15.3-.22.51-.22.15,0,.27.05.37.15.1.1.14.21.14.34,0,.07-.03.16-.09.27-.06.12-.09.23-.09.34,0,.25.12.45.36.6.24.15.52.23.86.23.45,0,.83-.13,1.14-.4.31-.27.57-.67.78-1.21.21-.54.31-.95.31-1.22,0-.35-.1-.63-.29-.83-.19-.2-.43-.3-.7-.3-.19,0-.48.15-.85.44-.29.23-.46.34-.5.34-.09,0-.13-.05-.13-.14,0-.04.22-.23.66-.56.8-.61,1.28-1.07,1.43-1.38s.23-.6.23-.87c0-.35-.1-.63-.31-.86s-.48-.33-.8-.33c-.45,0-.85.18-1.21.55s-.53.78-.53,1.24c0,.24.05.42.14.55s.24.18.43.18c.28,0,.54-.22.77-.66.03-.06.07-.08.12-.08.09,0,.13.04.13.13,0,.1-.13.31-.41.62-.27.31-.58.47-.95.47-.32,0-.57-.1-.75-.3-.17-.2-.26-.44-.26-.71,0-.57.27-1.09.82-1.56.55-.48,1.22-.71,2-.71.61,0,1.07.14,1.37.41.31.28.46.61.46.99,0,.29-.08.54-.23.76s-.33.4-.53.54l-1.03.73Z"/><path class="cls-4" d="m131.28,87.83c0,.23-.07.42-.22.57s-.34.22-.57.22h-2.74c-.23,0-.42-.07-.57-.22s-.22-.34-.22-.57v-2.83h.99v2.75h2.34v-5.25h-3.3l.13-5.03h4.08v.88h-3.11l-.12,3.27h2.52c.23,0,.42.07.57.22s.22.34.22.57v5.43Z"/><path class="cls-4" d="m106.8,175.01l2.95,1.16c.51.2.93.34,1.28.43.33.08.66.14.99.18l-.05,1.08c-1.35.91-2.35,1.67-3,2.26-.68.6-1.21,1.24-1.6,1.91-.31.53-.66,1.28-1.04,2.25l-.19.49-1.16-.46c.48-1.22.91-2.15,1.28-2.81.37-.66.9-1.31,1.59-1.96.52-.49,1.36-1.16,2.54-2l-3.97-1.56.39-1Z"/><path class="cls-4" d="m193.79,12.19l-3.07,4.86-.92-.58,1.18-1.87-6.02-3.8-1.18,1.87-.82-.52c.16-.25.31-.54.45-.85.14-.32.22-.57.23-.77.02-.25-.02-.47-.11-.68-.09-.21-.26-.4-.51-.58l.59-.93,8.09,5.11,1.16-1.83.92.58Z"/><path class="cls-4" d="m106.29,65.83c.43-.43,1-.65,1.72-.66.71-.01,1.46.2,2.24.62.78.42,1.58,1.04,2.4,1.87,1.37,1.38,2.17,2.65,2.42,3.81.25,1.16.04,2.07-.61,2.72-.62.62-1.49.81-2.61.58-1.12-.23-2.37-1.04-3.75-2.43-1.37-1.38-2.19-2.65-2.44-3.79-.25-1.14-.04-2.05.63-2.72Zm1.6.98c-.24-.24-.43-.38-.58-.42-.15-.04-.29,0-.41.13-.25.25-.16.58.26,1.01l5.82,5.86c.33.33.61.38.85.14.11-.11.16-.25.13-.42-.03-.17-.11-.32-.24-.45l-5.82-5.86Z"/><path class="cls-4" d="m259.78,60.51h.17v7.82c0,.37.03.66.1.89.06.23.16.4.3.52.23.2.59.31,1.09.36v.15h-4.12v-.15c.32-.02.56-.06.72-.12s.3-.15.42-.28c.12-.13.21-.29.25-.48.04-.19.07-.47.07-.85v-6.8c-.25.03-.44.04-.58.04-.35,0-.63-.03-.85-.08v-.13h.16c.37,0,.71-.06,1.04-.18.33-.12.69-.32,1.07-.59l.16-.11Z"/><path class="cls-4" d="m131.09,13.14c-.4.68-.6,1.36-.6,2.04,0,.39.06.74.18,1.05s.28.58.49.8.46.39.76.5c.3.12.62.17.98.17.75,0,1.32-.24,1.71-.7.39-.46.58-1.14.58-2.04,0-.36-.04-.88-.1-1.55l5,.28.03,4.46h-.83s-.03-3.67-.03-3.67l-3.32-.19c.03.41.05.74.05.98,0,.54-.06,1.02-.2,1.44-.14.42-.33.77-.59,1.06-.26.29-.58.5-.95.66-.37.15-.8.23-1.27.23-.48,0-.93-.07-1.33-.23-.4-.16-.74-.38-1.03-.68s-.51-.66-.67-1.1c-.16-.44-.24-.93-.25-1.49,0-.84.12-1.51.38-2.01h1Z"/><path class="cls-4" d="m22.32,101.76v1.49h.03c.58-.9,1.42-1.35,2.53-1.35.63,0,1.2.13,1.72.4.52.27.93.63,1.24,1.1.3.47.46.98.46,1.54,0,.61-.17,1.17-.51,1.68-.34.51-.81.91-1.4,1.19-.6.29-1.26.43-1.99.43-.59,0-1.14-.1-1.64-.3-.5-.2-.94-.48-1.33-.86-.31-.31-.57-.67-.79-1.09-.22-.42-.39-.87-.51-1.36-.12-.49-.17-1-.17-1.53,0-.76.12-1.47.37-2.12.24-.65.61-1.21,1.09-1.69.44-.44.96-.79,1.55-1.03.59-.25,1.2-.37,1.83-.37.53,0,1.02.1,1.46.29.44.2.79.46,1.05.8.26.34.39.71.39,1.11,0,.32-.11.6-.32.82-.21.22-.48.33-.81.33s-.61-.1-.83-.31c-.22-.2-.33-.46-.33-.78,0-.23.06-.42.17-.58.11-.16.29-.3.54-.43.22-.12.33-.24.33-.33,0-.11-.07-.22-.22-.33-.15-.1-.35-.19-.59-.25-.25-.06-.51-.1-.79-.1-.85,0-1.48.3-1.9.89-.42.59-.62,1.5-.62,2.72Zm0,2.81v.91c0,.55.07,1.01.22,1.38.15.37.37.65.66.84s.64.29,1.05.29c.64,0,1.09-.24,1.37-.72.1-.15.18-.35.24-.6.08-.34.11-.97.11-1.9,0-.57-.04-1.02-.12-1.34-.08-.32-.22-.59-.42-.79-.24-.25-.59-.38-1.03-.38-.41,0-.77.1-1.08.29-.31.2-.56.47-.73.82-.17.35-.26.75-.26,1.2Z"/><path class="cls-4" d="m87.92,133.8c-.98-.15-1.66-.33-2.04-.55-.38-.21-.68-.5-.89-.85-.32-.54-.39-1.13-.2-1.77.19-.64.62-1.16,1.32-1.57.67-.4,1.32-.54,1.94-.41.62.12,1.07.42,1.35.88.18.31.26.69.23,1.15-.03.45-.26,1.11-.71,1.96,1.05.14,1.79.29,2.21.47.56.24.98.59,1.25,1.06.35.59.42,1.22.22,1.91-.2.68-.66,1.24-1.39,1.66-.79.47-1.51.59-2.18.38-.66-.21-1.13-.56-1.41-1.03-.22-.37-.31-.81-.28-1.33s.22-1.16.56-1.96Zm.58-1.23c.23-.73.33-1.26.31-1.6-.02-.33-.13-.66-.32-.98-.25-.43-.57-.69-.96-.79-.39-.1-.79-.03-1.2.22s-.69.57-.81.96c-.12.4-.08.76.11,1.08.13.21.31.39.54.54.23.15.51.26.82.33l1.5.24Zm-.15,1.29c-.17.49-.24.95-.2,1.38.04.43.17.85.4,1.24.31.53.71.86,1.18,1.01.48.15.94.09,1.38-.18.44-.26.72-.59.84-1s.07-.79-.14-1.15c-.17-.29-.4-.51-.7-.65-.55-.26-1.47-.48-2.77-.66Z"/><path class="cls-4" d="m57.96,163.7l.82-1.77.2.1c-.04.14-.05.25-.04.32.02.1.12.21.31.31.91.47,1.81.64,2.69.5.92-.14,1.66-.55,2.22-1.23.69-.86.93-1.99.73-3.38-.02-.1-.04-.22-.06-.37-.54,1.38-1.63,2.2-3.26,2.44-1.09.16-2.02-.01-2.81-.52-.79-.51-1.26-1.21-1.39-2.11-.1-.68.02-1.32.35-1.92.31-.56.8-1.02,1.46-1.39.51-.28,1.06-.47,1.67-.56.95-.14,1.83-.02,2.63.36.75.35,1.36.92,1.81,1.7.36.62.59,1.31.71,2.07.14.92.08,1.8-.16,2.66-.28.97-.8,1.75-1.58,2.33-.62.46-1.34.75-2.17.88-.53.08-1.03.08-1.49.01-.47-.07-1.03-.23-1.68-.49-.24-.09-.38-.14-.42-.13-.11.02-.22.11-.33.28l-.2-.11Zm2.98-8.59c-.86.13-1.54.5-2.03,1.12-.39.5-.54,1.04-.44,1.65.09.61.41,1.07.95,1.4.6.37,1.31.5,2.14.37.91-.14,1.63-.5,2.15-1.09.41-.47.57-.99.49-1.56-.08-.53-.33-.96-.76-1.3-.67-.53-1.5-.73-2.49-.59Z"/><path class="cls-4" d="m146.29,185.68l-.38.61-1.52-.6c-.24.58-.41,1.01-.52,1.29-.15.37-.33.9-.54,1.57l1.38.5s-.03.06-.08.16c-.05.1-.08.15-.08.15-1.47-.58-2.84-.92-4.1-1.02l.08-.4c.78.15,1.58.31,2.41.49.13-.34.29-.81.47-1.42.18-.6.34-1.1.5-1.48-2.05-.76-3.47-1.29-4.26-1.57.11-.21.64-.6,1.59-1.15,1.11-.65,1.88-1.15,2.29-1.51.41-.36.67-.67.78-.95.13-.34.16-.6.09-.8-.07-.2-.25-.36-.55-.47-.3-.12-.63-.13-1.01-.05-.38.09-.61.25-.7.48-.06.14-.05.35.03.62.07.27.16.43.27.47.08.03.18.02.29-.04.11-.06.19-.15.24-.27.05-.13-.09-.26-.41-.39.03-.08.11-.14.24-.18.13-.04.22-.05.29-.02.13.05.23.14.29.27.06.12.06.25,0,.39-.08.21-.27.35-.56.42-.29.07-.56.05-.8-.04-.27-.11-.45-.31-.52-.59-.07-.29-.05-.57.06-.85.11-.28.44-.47.98-.56.54-.09,1.03-.05,1.47.12.48.19.82.47,1.03.83.2.36.21.77.04,1.21-.13.32-.39.65-.8.97-.4.32-1.09.7-2.06,1.12-.97.42-1.5.7-1.59.84.47.27.98.51,1.52.72.61.24,1.24.43,1.89.58.61-1.61,1.38-3.41,2.32-5.42.38.26.73.47,1.05.65l-.93,1.47c-.46.7-.83,1.33-1.11,1.86-.28.54-.54,1.08-.78,1.61.63.25,1.21.39,1.74.42Z"/><path class="cls-4" d="m150.36,189.76c.18.05.23.18.14.4-.05.12-.15.21-.31.26-.16.05-.29.06-.41.01-.15-.06-.27-.16-.38-.31-.11-.15-.13-.29-.08-.44.1-.26.28-.47.54-.64.26-.17.52-.21.79-.1.26.1.44.33.55.69.11.36.09.73-.06,1.11-.11.28-.39.5-.83.66-.44.16-.81.18-1.1.06-.17-.07-.52-.3-1.04-.68-.52-.39-1-.67-1.44-.84-.39-.16-.66-.22-.8-.21-.14.02-.25.08-.33.19-.11-.31-.11-.61,0-.89.1-.25.36-.56.77-.94s.99-.69,1.72-.94c1.4-.48,2.37-.93,2.9-1.35.53-.42.89-.88,1.08-1.38.18-.45.2-.93.08-1.44-.12-.51-.39-.85-.79-1.01-.43-.17-.84-.15-1.24.05-.4.2-.67.46-.8.79-.12.3-.13.59-.03.87.09.28.24.45.44.53.17.07.34.06.49-.03.16-.09.27-.22.33-.39.03-.08.04-.19.04-.33,0-.13-.04-.21-.09-.23-.07-.03-.15-.01-.26.03-.11.05-.18.12-.21.21-.02.06-.01.15.03.27-.12.02-.2.02-.26,0-.07-.03-.13-.08-.17-.17-.04-.08-.05-.16-.02-.23.07-.17.18-.3.34-.38.16-.08.31-.09.43-.04.57.22.78.54.62.94-.08.21-.29.38-.63.51-.34.13-.69.13-1.05-.02-.26-.1-.46-.33-.6-.67-.14-.35-.16-.64-.07-.89.19-.49.62-.83,1.27-1.01.66-.18,1.26-.16,1.8.05.56.22.95.65,1.19,1.29.24.64.27,1.18.09,1.64-.14.35-.43.73-.88,1.13-.45.4-.88.65-1.29.76-2.01.51-3.29.96-3.83,1.33s-.89.75-1.04,1.14c.39-.12.83-.09,1.29.1.39.15.88.59,1.48,1.32.34.41.57.64.69.69.28.11.56.09.85-.06.29-.15.49-.39.62-.71.08-.2.06-.42-.05-.66s-.27-.4-.49-.48c-.35-.14-.58-.04-.71.27-.04.09-.04.2,0,.32.03.12.09.2.18.23.22.08.39-.03.51-.35Z"/><path class="cls-4" d="m203.68,107.6c-.9-.75-1.35-1.69-1.35-2.8,0-.89.28-1.61.83-2.15.55-.54,1.29-.81,2.21-.81s1.68.26,2.22.77c.54.52.81,1.13.81,1.84,0,.94-.48,1.71-1.44,2.31.59.47,1.01.95,1.26,1.43.25.48.37,1.04.37,1.68,0,1.13-.33,2.02-.99,2.68s-1.46.99-2.39.99-1.65-.31-2.24-.92c-.59-.61-.89-1.36-.89-2.26,0-1.17.53-2.09,1.6-2.76Zm.7.6c-.23.2-.39.43-.48.72-.09.28-.14.7-.14,1.26,0,.8.12,1.38.35,1.76s.62.56,1.16.56c.41,0,.76-.13,1.03-.38.28-.25.41-.61.41-1.06,0-.42-.1-.77-.3-1.06-.2-.29-.55-.62-1.05-1.01l-.99-.78Zm1.82-2.01c.4-.37.6-.94.6-1.71,0-1.13-.42-1.7-1.25-1.7-.38,0-.68.13-.91.38-.23.25-.34.54-.34.85,0,.33.14.66.41.99.28.33.77.73,1.49,1.19Z"/><path id="MJMATHI-3C6" class="cls-2" d="m48.79,174.67c0,.4.08.76.25,1.07s.38.56.63.72c.26.16.51.3.76.4s.45.18.62.23l.26.04.04-.02.23-.72c.21-.68.4-1.26.58-1.74s.4-1,.69-1.55.56-1,.85-1.34.63-.62,1.04-.85.84-.33,1.29-.33c.53,0,1,.19,1.41.56s.62,1.01.63,1.9c0,.92-.25,1.8-.76,2.64s-1.2,1.53-2.08,2.06-1.81.79-2.78.79c-.31,0-.46.01-.46.04l-.12.63c-.07.41-.15.86-.25,1.36-.09.49-.16.81-.19.95-.06.28-.21.48-.46.58-.13.07-.28.11-.44.11-.36-.04-.55-.23-.55-.58,0-.12.32-1.19.97-3.22l-.09-.04c-.06-.02-.14-.05-.25-.09s-.23-.09-.39-.16-.31-.15-.46-.25c-.15-.09-.31-.2-.48-.32-.16-.12-.32-.26-.46-.44s-.28-.36-.4-.56c-.13-.2-.22-.43-.26-.69-.05-.26-.08-.54-.11-.85,0-.56.15-1.27.46-2.13.31-.86.73-1.56,1.29-2.11h.23c.25,0,.37.05.37.14,0,.07-.05.15-.14.25-.48.56-.84,1.2-1.07,1.92s-.36,1.24-.39,1.58Zm8.49-1.2c0-.49-.14-.88-.42-1.16s-.66-.43-1.13-.44c-.58,0-1.12.23-1.62.7s-.92,1.12-1.25,1.95c-.16.4-.33,1.04-.49,1.92l-.16.79c.21.02.33.04.35.04,1.37,0,2.5-.4,3.38-1.21s1.33-1.67,1.34-2.59Z"/><path id="MJMATHI-3D1" class="cls-2" d="m213.12,70.5c0,.32-.02.69-.07,1.13s-.1.77-.17,1.03l-.06.39c.46.09.7.15.74.2.02.02.04.06.04.11,0,.3-.07.46-.2.5-.12,0-.31-.03-.57-.09l-.2-.06c-.17.8-.49,1.65-.94,2.56s-1.05,1.75-1.79,2.51c-.74.76-1.48,1.14-2.23,1.14-1.73,0-2.6-.71-2.6-2.14,0-.42.17-1.26.5-2.53.33-1.27.5-2.03.5-2.29,0-.48-.16-.72-.48-.72-.26,0-.48.17-.66.52s-.33.72-.44,1.13-.18.63-.2.66c-.02.02-.12.04-.3.04h-.26c-.07-.07-.11-.13-.11-.17,0-.05.04-.21.11-.48s.2-.61.37-1.01.37-.71.59-.92c.3-.3.63-.44,1.01-.44.43,0,.84.14,1.24.42s.59.74.59,1.38c-.01.17-.18.89-.5,2.14s-.48,2.05-.48,2.4c0,.89.41,1.33,1.24,1.33.55,0,1.08-.39,1.57-1.18.49-.79.93-1.83,1.33-3.14l.42-1.64c-.06,0-.24-.06-.54-.18s-.66-.33-1.09-.61-.74-.58-.92-.89c-.3-.44-.44-.93-.44-1.48,0-.86.29-1.64.87-2.34s1.22-1.06,1.94-1.07c.57,0,1.02.22,1.37.65s.57.91.68,1.44.17,1.09.17,1.7Zm-1.35-1.18c0-1.28-.31-1.92-.94-1.92-.49,0-.95.28-1.37.85s-.63,1.18-.65,1.85c0,.34.08.66.24.96s.36.54.59.72.47.34.72.46.45.22.61.28.25.09.26.07h.02l.13-.52c.09-.34.17-.77.26-1.29s.13-1,.13-1.46Z"/><path id="MJSZ2-2211" class="cls-2" d="m18.34,8.12s1.5-.01,4.46-.01h4.44l.43.99c.29.68.44,1.04.46,1.08h-.29l-.05-.1c-.1-.2-.24-.39-.41-.57-.25-.24-.52-.42-.82-.57s-.65-.25-1.04-.32c-.39-.07-.76-.11-1.11-.13s-.8-.02-1.35-.03h-3.3l.06.08c2.27,3.11,3.42,4.68,3.43,4.71,0,0,0,.02,0,.04-.01.01-.66.76-1.94,2.22l-1.94,2.21s.52,0,1.55,0h1.04c.44,0,.75,0,.94,0,.67,0,1.21-.01,1.62-.04s.82-.08,1.23-.15c.41-.08.75-.2,1.04-.36s.54-.38.76-.64c.1-.13.2-.3.3-.53h.29s-.02.06-.05.15-.1.26-.18.48-.16.43-.23.62l-.43,1.14h-4.43c-2.96,0-4.44,0-4.46,0-.03,0-.04-.03-.04-.07,0,0,0-.02.01-.04l3.93-4.49s-.08-.12-.24-.33-.42-.57-.77-1.06-.67-.93-.96-1.31l-1.96-2.69v-.11c0-.1,0-.16.03-.18Z"/><path id="MJMAIN-28" class="cls-2" d="m29.26,13.26c0-.34.02-.66.07-.97s.11-.57.17-.79c.06-.22.15-.44.27-.65s.21-.38.28-.49.17-.25.31-.38c.14-.14.22-.22.24-.25s.09-.08.18-.15h.13c.07,0,.1.02.1.07,0,.01-.04.07-.13.15s-.18.22-.3.39-.24.38-.36.63-.23.59-.31,1.02-.13.9-.13,1.42.04.99.13,1.41c.08.42.18.76.3,1.02.12.26.24.47.36.63s.23.29.31.39.13.15.13.15c0,.04-.04.07-.11.07h-.12l-.21-.18c-.46-.42-.8-.94-1.01-1.56-.21-.62-.32-1.27-.32-1.94Z"/><path id="MJMATHI-79" class="cls-2" d="m31.63,12.99c0-.07.04-.19.11-.35s.19-.34.35-.52.34-.27.55-.27c.2,0,.36.06.49.17s.19.27.19.47c0,.09-.02.14-.02.15,0,.01-.04.13-.12.34s-.16.45-.24.71-.12.48-.12.63c0,.21.03.36.1.44s.17.13.31.13c.11,0,.22-.03.32-.08.1-.05.17-.11.23-.17s.12-.14.2-.24c0,0,.01-.05.04-.15s.06-.24.1-.43.09-.38.14-.55c.19-.74.29-1.12.31-1.16.06-.13.17-.2.32-.2.06,0,.12.02.15.05s.07.06.08.09.02.05.01.07c0,.06-.12.58-.36,1.55-.24.97-.38,1.5-.41,1.59-.14.41-.38.73-.71.97-.34.24-.68.36-1.02.37-.22,0-.42-.05-.58-.16-.17-.11-.25-.27-.25-.49,0-.11.02-.2.05-.27s.08-.13.14-.16.11-.06.15-.07.08-.02.13-.02c.22,0,.32.1.32.31,0,.1-.03.18-.09.26s-.12.12-.17.15-.09.04-.1.04h-.02s.06.06.14.1c.08.03.17.05.25.05h.06c.08,0,.15,0,.19-.01.16-.04.31-.14.45-.28.14-.14.24-.29.32-.46s.13-.3.17-.41c.04-.11.06-.19.06-.22l-.04.03s-.08.05-.14.08c-.06.03-.13.06-.19.09-.1.02-.19.04-.29.04-.23,0-.42-.05-.6-.16-.17-.11-.28-.28-.34-.52,0-.03,0-.11,0-.23,0-.28.09-.65.26-1.1.17-.45.26-.74.26-.86h0v-.1s0-.03-.03-.05-.05-.03-.08-.03h-.03c-.11,0-.22.05-.31.14s-.17.19-.22.3-.1.21-.13.31-.05.15-.06.16-.05.01-.12.01h-.1s-.04-.05-.04-.07Z"/><path id="MJMATHI-69" class="cls-2" d="m36.08,13.09c0-.08.03-.16.1-.22s.14-.1.23-.1c.06,0,.11.02.16.06s.06.09.07.16c0,.08-.03.15-.1.22s-.15.1-.23.1c-.05,0-.1-.02-.15-.05s-.07-.09-.07-.17Zm-.85,1.63s.02-.08.05-.16.07-.17.13-.27.13-.19.23-.27.2-.12.31-.11c.14,0,.25.04.34.12s.14.19.14.32c0,.06-.02.16-.07.29s-.12.32-.21.55-.16.43-.22.59c-.02.08-.03.13-.03.17,0,.09.03.13.09.13.03,0,.06,0,.1-.02s.07-.03.12-.07.09-.1.14-.18.09-.19.13-.31c.01-.04.02-.07.03-.07s.04-.01.09-.01c.07,0,.1.02.1.05,0,.03-.02.08-.05.16s-.07.17-.13.27c-.06.1-.13.18-.23.26-.1.08-.21.11-.32.11s-.21-.04-.31-.11-.14-.18-.15-.33c0-.06,0-.11.03-.17s.09-.25.22-.59c.13-.35.21-.56.23-.63s.03-.14.04-.2c0-.08-.03-.13-.09-.13h-.01c-.1,0-.2.06-.29.17s-.15.26-.2.44c0,0,0,0-.01.02s0,.01,0,.02,0,0-.01.01-.01,0-.02,0h-.14s-.03-.04-.03-.05Z"/><path id="MJMAIN-2212" class="cls-2" d="m39.93,13.36v-.1c0-.06.03-.11.1-.15h4.28c.07.04.11.09.11.15s-.04.11-.11.15h-4.28c-.07-.03-.1-.08-.1-.15v.1Z"/><path id="MJMATHI-79-2" class="cls-2" d="m46.88,12.99c0-.07.04-.19.11-.35s.19-.34.35-.52.34-.27.55-.27c.2,0,.36.06.49.17s.19.27.19.47c0,.09-.02.14-.02.15,0,.01-.04.13-.12.34s-.16.45-.24.71-.12.48-.12.63c0,.21.03.36.1.44s.17.13.31.13c.11,0,.22-.03.32-.08.1-.05.17-.11.23-.17s.12-.14.2-.24c0,0,.01-.05.04-.15s.06-.24.1-.43.09-.38.14-.55c.19-.74.29-1.12.31-1.16.06-.13.17-.2.32-.2.06,0,.12.02.15.05s.07.06.08.09.02.05.01.07c0,.06-.12.58-.36,1.55-.24.97-.38,1.5-.41,1.59-.14.41-.38.73-.71.97-.34.24-.68.36-1.02.37-.22,0-.42-.05-.58-.16-.17-.11-.25-.27-.25-.49,0-.11.02-.2.05-.27s.08-.13.14-.16.11-.06.15-.07.08-.02.13-.02c.22,0,.32.1.32.31,0,.1-.03.18-.09.26s-.12.12-.17.15-.09.04-.1.04h-.02s.06.06.14.1c.08.03.17.05.25.05h.06c.08,0,.15,0,.19-.01.16-.04.31-.14.45-.28.14-.14.24-.29.32-.46s.13-.3.17-.41c.04-.11.06-.19.06-.22l-.04.03s-.08.05-.14.08c-.06.03-.13.06-.19.09-.1.02-.19.04-.29.04-.23,0-.42-.05-.6-.16-.17-.11-.28-.28-.34-.52,0-.03,0-.11,0-.23,0-.28.09-.65.26-1.1.17-.45.26-.74.26-.86h0v-.1s0-.03-.03-.05-.05-.03-.08-.03h-.03c-.11,0-.22.05-.31.14s-.17.19-.22.3-.1.21-.13.31-.05.15-.06.16-.05.01-.12.01h-.1s-.04-.05-.04-.07Z"/><path id="MJMAIN-5E" class="cls-2" d="m47.98,10.85l1.01-.99.06.06c.64.61.96.92.96.93l-.19.21s-.15-.13-.43-.37l-.39-.34-.41.35c-.06.05-.13.11-.19.17s-.12.11-.15.14l-.06.04s-.05-.02-.11-.1l-.1-.1Z"/><path id="MJMATHI-69-2" class="cls-2" d="m51.84,13.83c0-.08.03-.16.1-.22s.14-.1.23-.1c.06,0,.11.02.16.06s.06.09.07.16c0,.08-.03.15-.1.22s-.15.1-.23.1c-.05,0-.1-.02-.15-.05s-.07-.09-.07-.17Zm-.85,1.63s.02-.08.05-.16.07-.17.13-.27.13-.19.23-.27.2-.12.31-.11c.14,0,.25.04.34.12s.14.19.14.32c0,.06-.02.16-.07.29s-.12.32-.21.55-.16.43-.22.59c-.02.08-.03.13-.03.17,0,.09.03.13.09.13.03,0,.06,0,.1-.02s.07-.03.12-.07.09-.1.14-.18.09-.19.13-.31c.01-.04.02-.07.03-.07s.04-.01.09-.01c.07,0,.1.02.1.05,0,.03-.02.08-.05.16s-.07.17-.13.27c-.06.1-.13.18-.23.26-.1.08-.21.11-.32.11s-.21-.04-.31-.11-.14-.18-.15-.33c0-.06,0-.11.03-.17s.09-.25.22-.59c.13-.35.21-.56.23-.63s.03-.14.04-.2c0-.08-.03-.13-.09-.13h-.01c-.1,0-.2.06-.29.17s-.15.26-.2.44c0,0,0,0-.01.02s0,.01,0,.02,0,0-.01.01-.01,0-.02,0h-.14s-.03-.04-.03-.05Z"/><path id="MJMAIN-29" class="cls-2" d="m53.88,9.59h.03s.05,0,.07,0h.09l.21.18c.46.42.8.94,1.01,1.56.21.62.32,1.27.32,1.94,0,.33-.02.66-.07.97s-.11.57-.17.79c-.06.22-.15.43-.27.65-.12.22-.21.38-.28.49-.07.11-.17.24-.3.38s-.21.22-.24.24-.08.07-.17.14c-.01.01-.02.02-.03.03h-.17s-.03,0-.04-.02-.02-.04-.02-.07c0,0,.03-.04.08-.1.76-.79,1.14-1.96,1.14-3.5s-.38-2.71-1.14-3.5c-.05-.06-.08-.09-.08-.1,0-.04.01-.07.04-.08Z"/><path id="MJMAIN-32-2" class="cls-2" d="m56.91,9.83c-.09,0-.17-.03-.22-.09-.06-.06-.08-.14-.08-.23,0-.25.09-.46.28-.64.18-.18.41-.27.69-.27.32,0,.58.1.79.29s.32.45.32.76c0,.15-.03.29-.1.43s-.15.25-.25.35-.24.23-.42.39c-.13.11-.3.27-.52.48l-.31.29h.4c.55,0,.84,0,.87-.02.02,0,.07-.16.13-.46v-.02h.21v.02s-.03.17-.07.47c-.04.31-.07.47-.08.48v.02h-1.93v-.16s.01-.05.03-.08.07-.09.16-.18c.1-.11.19-.21.26-.29.03-.03.09-.1.18-.19s.15-.16.18-.19.08-.09.15-.17c.07-.08.12-.14.15-.18.03-.04.07-.09.12-.16s.09-.12.11-.17.05-.1.08-.15.05-.11.07-.17.03-.11.04-.16.02-.11.02-.17c0-.22-.06-.41-.18-.57s-.29-.24-.51-.24c-.11,0-.22.03-.3.09s-.15.12-.18.17-.05.09-.05.1c0,0,0,0,.03,0,.06,0,.13.02.19.07s.1.13.1.24c0,.09-.03.16-.08.22s-.13.09-.23.09Z"/><path id="MJSZ4-221A" class="cls-2" d="m64.51,175.84s.05-.06.1-.06c.02,0,.05,0,.06.03s.03.04.04.06c0,.02-.48,2.69-1.43,7.98s-1.44,7.95-1.45,7.96c0,.03-.04.05-.11.05h-.02s-.06,0-.06-.01l-.08-.44c-.06-.3-.14-.73-.24-1.32-.1-.58-.21-1.15-.31-1.71l-.62-3.45-.34.68-.14-.14.4-.82.41-.81s.2,1.08.59,3.23c.38,2.14.57,3.22.58,3.24l1.31-7.22c.86-4.81,1.3-7.23,1.32-7.26Z"/><rect class="cls-2" x="64.63" y="175.62" width="30.23" height=".32" transform="translate(-1.25 .57) rotate(-.41)"/><rect class="cls-2" x="65.33" y="184.24" width="28.95" height=".32" transform="translate(-1.31 .57) rotate(-.41)"/><path id="MJSZ1-2211" class="cls-2" d="m65.93,177.82s.77-.02,2.29-.03l2.27-.02.22.59c.04.11.08.22.12.33s.07.19.09.25.03.09.03.09h-.11s-.11,0-.11,0c-.08-.22-.22-.41-.39-.55s-.37-.26-.59-.32c-.19-.06-.41-.1-.65-.12s-.64-.02-1.17-.02h-.63c-.49,0-.73.01-.73.02.01.01.31.41.89,1.2s.88,1.19.88,1.2c.02.03.03.06.01.08l-.12.15c-.08.1-.21.25-.37.44s-.32.39-.48.58l-.96,1.15s.38,0,1.14,0h.4c.17,0,.3,0,.37,0,.62,0,1.1-.06,1.45-.15s.63-.31.84-.64c.04-.06.08-.15.12-.26h.21s-.45,1.37-.45,1.37l-2.27.02c-1.51.01-2.27.01-2.29,0-.02,0-.03-.02-.03-.05,0-.02.11-.16.33-.42.24-.29.47-.56.67-.81l.97-1.17s-.34-.46-1.01-1.36l-1-1.36v-.06c0-.06,0-.09.02-.11Z"/><path id="MJMAIN-28-2" class="cls-2" d="m71.81,180.44c0-.25.01-.48.05-.7s.07-.41.12-.57c.05-.16.11-.32.19-.47s.15-.27.2-.36.12-.18.22-.28c.1-.1.16-.16.18-.18s.06-.06.13-.11h.07s.02,0,.02,0c.05,0,.08.02.08.05,0,.01-.03.05-.09.11s-.13.16-.22.29-.17.28-.26.46-.16.43-.22.74-.09.66-.08,1.03.04.72.1,1.03c.06.31.14.55.22.74.09.19.18.34.27.46s.17.21.23.28.09.11.09.11c0,.03-.03.05-.08.05h-.02s-.07,0-.07,0l-.15-.13c-.34-.3-.58-.68-.74-1.13-.16-.45-.24-.92-.24-1.41Z"/><path id="MJMATHI-79-3" class="cls-2" d="m73.53,180.23s.03-.14.08-.26.14-.25.25-.38.25-.2.39-.2c.15,0,.26.04.35.12s.14.2.14.34c0,.07-.01.11-.02.11,0,.01-.03.09-.08.25s-.11.33-.17.52-.09.35-.08.46c0,.15.03.26.08.32s.13.09.23.09c.08,0,.16-.02.23-.06.07-.04.13-.08.17-.12s.09-.1.14-.18c0,0,0-.04.03-.11s.04-.17.07-.32.06-.28.1-.4c.13-.54.2-.82.22-.84.05-.1.12-.15.23-.15.05,0,.08.01.11.04s.05.05.06.06.01.03.01.05c0,.05-.08.42-.25,1.13-.17.7-.27,1.09-.29,1.16-.1.3-.27.53-.51.71-.24.18-.49.27-.74.27-.16,0-.3-.04-.42-.11-.12-.08-.18-.19-.18-.35,0-.08.01-.14.04-.2s.06-.09.1-.12.08-.04.11-.05.06-.02.09-.02c.16,0,.24.07.24.22,0,.07-.02.13-.06.19s-.08.09-.12.11-.06.03-.07.03h-.02s.04.04.1.07c.06.02.12.04.18.04h.04c.06,0,.11,0,.14-.01.12-.03.23-.1.33-.21.1-.1.18-.22.23-.33s.09-.22.12-.3c.03-.08.04-.14.04-.16l-.03.02s-.06.03-.1.06c-.05.03-.09.05-.14.07-.07.02-.14.03-.21.03-.16,0-.31-.04-.43-.11-.13-.08-.21-.2-.25-.38,0-.02,0-.08,0-.17,0-.2.06-.47.18-.8.12-.33.18-.54.18-.63h0s0-.06,0-.07,0-.02-.02-.04-.03-.02-.06-.02h-.02c-.08,0-.16.04-.22.1s-.12.14-.16.22-.07.15-.09.23-.03.11-.04.12-.04.01-.09.01h-.07s-.03-.04-.03-.05Z"/><path id="MJMATHI-69-3" class="cls-2" d="m76.76,180.28c0-.06.02-.11.07-.16s.1-.07.17-.07c.05,0,.08.01.11.04s.05.07.05.11c0,.06-.02.11-.07.16s-.11.07-.17.08c-.04,0-.07-.01-.11-.04s-.05-.07-.05-.12Zm-.61,1.19s.01-.06.03-.12.05-.12.09-.19.09-.14.17-.19.15-.09.23-.08c.1,0,.18.03.25.09s.1.14.1.23c0,.04-.02.11-.05.21s-.08.23-.15.4-.12.31-.16.43c-.01.06-.02.1-.02.12,0,.06.02.09.07.09.02,0,.05,0,.07-.01s.05-.03.09-.05.07-.07.1-.13.07-.14.09-.22c0-.03.01-.05.02-.05s.03,0,.06,0c.05,0,.08.01.08.04,0,.02-.01.06-.03.12s-.05.12-.09.19c-.04.07-.1.13-.17.19-.07.06-.15.08-.23.08s-.16-.03-.22-.08-.1-.13-.11-.24c0-.04,0-.08.02-.12s.07-.18.16-.43c.09-.26.15-.41.16-.46s.02-.1.03-.15c0-.06-.02-.09-.06-.09h0c-.08,0-.14.04-.21.13s-.11.19-.14.32c0,0,0,0,0,.01s0,0,0,.01,0,0,0,0,0,0-.01,0h-.02s-.02,0-.03,0h-.05s-.02-.03-.02-.03Z"/><path id="MJMAIN-2212-2" class="cls-2" d="m79.56,180.46v-.07s.02-.08.07-.11l3.11-.02c.05.03.08.06.08.11s-.03.08-.08.11l-3.11.02c-.05-.02-.08-.06-.08-.11v.07Z"/><path id="MJMATHI-79-4" class="cls-2" d="m84.61,180.15s.03-.14.08-.26.14-.25.25-.38.25-.2.39-.2c.15,0,.26.04.35.12s.14.2.14.34c0,.07-.01.11-.02.11,0,.01-.03.09-.08.25s-.11.33-.17.52-.09.35-.08.46c0,.15.03.26.08.32s.13.09.23.09c.08,0,.16-.02.23-.06.07-.04.13-.08.17-.12s.09-.1.14-.18c0,0,0-.04.03-.11s.04-.17.07-.32.06-.28.1-.4c.13-.54.2-.82.22-.84.05-.1.12-.15.23-.15.05,0,.08.01.11.04s.05.05.06.06.01.03.01.05c0,.05-.08.42-.25,1.13-.17.7-.27,1.09-.29,1.16-.1.3-.27.53-.51.71-.24.18-.49.27-.74.27-.16,0-.3-.04-.42-.11-.12-.08-.18-.19-.18-.35,0-.08.01-.14.04-.2s.06-.09.1-.12.08-.04.11-.05.06-.02.09-.02c.16,0,.24.07.24.22,0,.07-.02.13-.06.19s-.08.09-.12.11-.06.03-.07.03h-.02s.04.04.1.07c.06.02.12.04.18.04h.04c.06,0,.11,0,.14-.01.12-.03.23-.1.33-.21.1-.1.18-.22.23-.33s.09-.22.12-.3c.03-.08.04-.14.04-.16l-.03.02s-.06.03-.1.06c-.05.03-.09.05-.14.07-.07.02-.14.03-.21.03-.16,0-.31-.04-.43-.11-.13-.08-.21-.2-.25-.38,0-.02,0-.08,0-.17,0-.2.06-.47.18-.8.12-.33.18-.54.18-.63h0s0-.06,0-.07,0-.02-.02-.04-.03-.02-.06-.02h-.02c-.08,0-.16.04-.22.1s-.12.14-.16.22-.07.15-.09.23-.03.11-.04.12-.04.01-.09.01h-.07s-.03-.04-.03-.05Z"/><path id="MJMAIN-5E-2" class="cls-2" d="m85.4,178.59l.73-.72.04.04c.47.44.7.66.7.67l-.14.16s-.11-.09-.31-.27l-.29-.24-.29.25s-.09.08-.14.12-.08.08-.11.1l-.04.03s-.03-.02-.08-.07l-.07-.07Z"/><path id="MJMATHI-69-4" class="cls-2" d="m88.21,180.74c0-.06.02-.11.07-.16s.1-.07.17-.07c.05,0,.08.01.11.04s.05.07.05.11c0,.06-.02.11-.07.16s-.11.07-.17.08c-.04,0-.07-.01-.11-.04s-.05-.07-.05-.12Zm-.61,1.19s.01-.06.03-.12.05-.12.09-.19.09-.14.17-.19.15-.09.23-.08c.1,0,.18.03.25.09s.1.14.1.23c0,.04-.02.11-.05.21s-.08.23-.15.4-.12.31-.16.43c-.01.06-.02.1-.02.12,0,.06.02.09.07.09.02,0,.05,0,.07-.01s.05-.03.09-.05.07-.07.1-.13.07-.14.09-.22c0-.03.01-.05.02-.05s.03,0,.06,0c.05,0,.08.01.08.04,0,.02-.01.06-.03.12s-.05.12-.09.19c-.04.07-.1.13-.17.19-.07.06-.15.08-.23.08s-.16-.03-.22-.08-.1-.13-.11-.24c0-.04,0-.08.02-.12s.07-.18.16-.43c.09-.26.15-.41.16-.46s.02-.1.03-.15c0-.06-.02-.09-.06-.09h0c-.08,0-.14.04-.21.13s-.11.19-.14.32c0,0,0,0,0,.01s0,0,0,.01,0,0,0,0,0,0-.01,0h-.02s-.02,0-.03,0h-.05s-.02-.03-.02-.03Z"/><path id="MJMAIN-29-2" class="cls-2" d="m89.68,177.65h.02s.04,0,.05,0h.06s.15.13.15.13c.34.3.58.68.74,1.13.16.45.24.92.24,1.41,0,.24-.01.48-.05.7s-.07.42-.12.57c-.05.16-.11.31-.19.47-.08.16-.15.28-.2.36-.05.08-.12.17-.22.27s-.15.16-.17.18-.06.05-.12.1c-.01.01-.02.02-.02.02h-.06s-.05,0-.06,0-.02,0-.03-.02-.01-.03-.02-.05c0,0,.02-.03.06-.07.55-.58.82-1.43.81-2.55s-.29-1.97-.85-2.54c-.04-.04-.06-.07-.06-.07,0-.03,0-.05.03-.06Z"/><path id="MJMAIN-32-3" class="cls-2" d="m91.88,178.47c-.07,0-.12-.02-.16-.07-.04-.05-.06-.1-.06-.17,0-.18.06-.33.2-.47.13-.13.3-.2.5-.2.23,0,.42.07.58.21s.23.32.24.55c0,.11-.02.21-.07.31s-.11.18-.18.26-.17.17-.3.28c-.09.08-.22.2-.38.35l-.22.21h.29c.4,0,.61,0,.63-.02.02,0,.05-.12.09-.34h0s.15-.01.15-.01h0s-.02.13-.05.36c-.03.22-.05.34-.05.35h0s-1.4.02-1.4.02v-.07s0-.05,0-.05c0-.02,0-.04.02-.06s.05-.06.11-.13c.07-.08.14-.15.19-.21.02-.03.07-.07.13-.14s.11-.12.13-.14.06-.07.11-.13c.05-.06.09-.1.11-.13.02-.03.05-.07.09-.11s.06-.09.08-.12.03-.07.06-.11.04-.08.05-.12.02-.08.03-.11.01-.08.01-.12c0-.16-.05-.3-.13-.41s-.21-.17-.37-.17c-.08,0-.16.02-.22.07s-.11.09-.13.13-.04.06-.04.07c0,0,0,0,.02,0,.05,0,.09.02.14.05s.07.09.07.17c0,.06-.02.12-.06.16s-.1.07-.17.07Z"/><path id="MJMATHI-6E" class="cls-2" d="m78.32,187.89s0-.05.02-.09.03-.1.06-.2c.03-.1.07-.18.11-.25s.09-.13.18-.2.16-.1.25-.09c.13,0,.24.03.32.09s.14.12.16.18.03.09.03.11c0,0,0,.01,0,.01l.06-.06c.22-.23.46-.35.74-.35.19,0,.35.05.47.14s.18.24.19.42-.06.47-.2.84-.2.6-.2.68c0,.09.03.14.09.14.02,0,.04,0,.05,0,.1-.02.2-.09.28-.21.08-.12.14-.26.18-.43,0-.03.04-.04.11-.04.07,0,.11.01.11.04,0,0,0,.03-.02.08-.03.1-.07.21-.12.31-.05.1-.13.2-.24.3-.11.1-.24.15-.37.15-.17,0-.29-.05-.36-.14s-.11-.2-.11-.3c0-.07.06-.28.19-.64.13-.36.19-.63.19-.81,0-.21-.08-.32-.24-.31h-.03c-.31,0-.56.18-.77.55l-.04.06-.17.72c-.11.47-.18.72-.2.76-.05.1-.12.15-.23.15-.05,0-.08-.01-.11-.03s-.05-.04-.06-.06-.01-.04-.01-.05c0-.05.07-.34.2-.87.13-.54.2-.83.21-.87,0-.02,0-.06,0-.12,0-.14-.04-.21-.13-.21-.14,0-.25.18-.33.54-.02.07-.03.11-.03.11,0,.02-.04.03-.1.03h-.07s-.03-.04-.03-.05Z"/><rect class="cls-2" x="299.5" y="175.91" width="43.02" height=".48"/><path id="MJSZ1-2211-2" class="cls-2" d="m300.47,166.22s1.15-.02,3.4-.02h3.37l.33.87c.06.16.12.33.17.49s.1.28.14.37.05.13.05.14h-.32c-.12-.34-.32-.61-.58-.84s-.55-.38-.87-.49c-.28-.1-.6-.16-.97-.18s-.95-.04-1.74-.04h-.93c-.72,0-1.08,0-1.08,0,.02.02.45.61,1.31,1.79.86,1.18,1.29,1.77,1.3,1.79.03.05.04.09.02.12l-.18.22c-.13.15-.31.37-.56.65s-.48.57-.72.85l-1.44,1.7s.56,0,1.69,0h.59c.25,0,.44,0,.56,0,.92,0,1.64-.07,2.16-.21s.94-.46,1.26-.95c.05-.08.11-.21.18-.39h.32l-.68,2.03h-3.37c-2.25,0-3.38,0-3.4,0-.03-.01-.05-.03-.05-.07,0-.03.16-.23.49-.62.36-.42.7-.82,1.01-1.19l1.46-1.73s-.49-.68-1.48-2.04l-1.47-2.03v-.09c0-.08,0-.14.03-.16Z"/><path id="MJMAIN-28-3" class="cls-2" d="m309.17,170.19c0-.37.03-.71.08-1.04s.11-.61.18-.85c.07-.24.17-.47.29-.7s.23-.41.3-.53.19-.27.33-.41c.15-.15.24-.24.26-.27s.09-.09.2-.17h.14c.07,0,.11.02.11.07,0,.02-.05.07-.14.17s-.2.24-.33.42-.26.41-.39.68-.24.64-.33,1.1-.14.97-.14,1.54.05,1.07.14,1.53c.09.46.2.82.33,1.11.13.28.26.51.39.68s.24.32.33.42.14.16.14.17c0,.05-.04.07-.12.07h-.13l-.22-.19c-.5-.45-.86-1.01-1.09-1.69-.23-.67-.34-1.37-.34-2.1Z"/><path id="MJMATHI-79-5" class="cls-2" d="m311.72,169.89c0-.07.04-.2.12-.38s.21-.37.38-.56.37-.29.59-.29c.22,0,.39.06.52.18s.2.29.21.51c-.01.1-.02.16-.02.17,0,.02-.04.14-.13.37s-.17.49-.26.77-.13.51-.13.68c0,.23.04.39.11.48s.19.14.33.14c.12,0,.24-.03.34-.09.11-.06.19-.12.25-.18s.13-.15.21-.26c0,0,.01-.06.04-.16s.06-.26.11-.47.1-.41.15-.59c.2-.8.31-1.21.33-1.25.07-.14.18-.21.34-.21.07,0,.12.02.17.06s.07.07.09.1.02.05.02.07c0,.07-.13.63-.39,1.67-.26,1.04-.41,1.62-.45,1.72-.15.44-.41.79-.77,1.05-.37.26-.73.39-1.1.4-.24,0-.45-.06-.63-.17-.18-.12-.27-.29-.27-.52,0-.12.02-.21.06-.29s.09-.14.15-.17.12-.06.16-.08.09-.02.14-.02c.23,0,.35.11.35.33,0,.11-.03.2-.1.28s-.12.13-.18.16-.09.04-.1.04h-.02s.06.07.15.1c.09.04.18.06.27.06h.06c.09,0,.16,0,.21-.02.17-.05.34-.15.49-.3.15-.15.26-.32.34-.49s.14-.32.18-.45c.04-.12.06-.2.06-.24l-.05.03s-.08.05-.15.09c-.07.04-.14.07-.21.1-.11.03-.21.04-.31.04-.24,0-.46-.06-.64-.17-.19-.12-.31-.3-.37-.56,0-.04,0-.12,0-.25,0-.3.09-.7.28-1.19.19-.49.28-.8.28-.93v-.11s-.01-.03-.03-.06-.05-.03-.09-.03h-.03c-.12,0-.23.05-.33.15s-.18.21-.24.33-.1.23-.14.33-.05.16-.06.17-.05.02-.13.02h-.11s-.05-.06-.05-.07Z"/><path id="MJMATHI-69-5" class="cls-2" d="m316.53,170c0-.09.04-.17.11-.24s.15-.1.25-.11c.07,0,.12.02.17.07s.07.1.07.17c0,.09-.04.16-.11.24s-.16.11-.25.11c-.06,0-.11-.02-.16-.06s-.07-.1-.08-.19Zm-.92,1.76s.02-.09.05-.17.08-.18.13-.29.14-.2.25-.29.22-.13.34-.12c.15,0,.27.04.37.13s.15.2.15.35c0,.06-.03.17-.08.31s-.13.34-.22.59-.18.46-.24.64c-.02.08-.03.14-.03.18,0,.09.03.14.1.14.03,0,.07,0,.11-.02s.08-.04.13-.08.1-.11.15-.2.1-.2.14-.33c.01-.04.02-.07.03-.08s.04-.01.1-.01c.07,0,.11.02.11.06,0,.03-.02.09-.05.17s-.08.18-.14.29c-.06.1-.14.2-.25.28-.11.08-.22.12-.35.12s-.23-.04-.33-.12-.15-.2-.16-.36c0-.06,0-.12.03-.18s.1-.27.24-.64c.14-.38.22-.61.25-.68s.04-.15.04-.22c0-.09-.03-.13-.1-.13h-.01c-.11,0-.22.06-.31.19s-.16.28-.21.47c0,0,0,0-.01.02s0,.01,0,.02,0,0-.01.01-.01,0-.02,0h-.15s-.03-.04-.03-.05Z"/><path id="MJMAIN-2212-3" class="cls-2" d="m320.69,170.29v-.1c0-.07.04-.12.11-.16h4.62c.08.04.12.1.12.16s-.04.12-.12.16h-4.62c-.07-.04-.11-.09-.11-.16v.1Z"/><path id="MJMATHI-79-6" class="cls-2" d="m328.19,169.89c0-.07.04-.2.12-.38s.21-.37.38-.56.37-.29.59-.29c.22,0,.39.06.52.18s.2.29.21.51c-.01.1-.02.16-.02.17,0,.02-.04.14-.13.37s-.17.49-.26.77-.13.51-.13.68c0,.23.04.39.11.48s.19.14.33.14c.12,0,.24-.03.34-.09.11-.06.19-.12.25-.18s.13-.15.21-.26c0,0,.01-.06.04-.16s.06-.26.11-.47.1-.41.15-.59c.2-.8.31-1.21.33-1.25.07-.14.18-.21.34-.21.07,0,.12.02.17.06s.07.07.09.1.02.05.02.07c0,.07-.13.63-.39,1.67-.26,1.04-.41,1.62-.45,1.72-.15.44-.41.79-.77,1.05-.37.26-.73.39-1.1.4-.24,0-.45-.06-.63-.17-.18-.12-.27-.29-.27-.52,0-.12.02-.21.06-.29s.09-.14.15-.17.12-.06.16-.08.09-.02.14-.02c.23,0,.35.11.35.33,0,.11-.03.2-.1.28s-.12.13-.18.16-.09.04-.1.04h-.02s.06.07.15.1c.09.04.18.06.27.06h.06c.09,0,.16,0,.21-.02.17-.05.34-.15.49-.3.15-.15.26-.32.34-.49s.14-.32.18-.45c.04-.12.06-.2.06-.24l-.05.03s-.08.05-.15.09c-.07.04-.14.07-.21.1-.11.03-.21.04-.31.04-.24,0-.46-.06-.64-.17-.19-.12-.31-.3-.37-.56,0-.04,0-.12,0-.25,0-.3.09-.7.28-1.19.19-.49.28-.8.28-.93v-.11s-.01-.03-.03-.06-.05-.03-.09-.03h-.03c-.12,0-.23.05-.33.15s-.18.21-.24.33-.1.23-.14.33-.05.16-.06.17-.05.02-.13.02h-.11s-.05-.06-.05-.07Z"/><path id="MJMAIN-5E-3" class="cls-2" d="m329.38,167.58l1.09-1.07.06.06c.69.66,1.03.99,1.03,1l-.21.23s-.16-.14-.46-.4l-.42-.37-.44.37c-.07.06-.14.12-.21.18s-.12.11-.17.15l-.06.05s-.05-.03-.12-.11l-.1-.11Z"/><path id="MJMATHI-69-6" class="cls-2" d="m333.54,170.8c0-.09.04-.17.11-.24s.15-.1.25-.11c.07,0,.12.02.17.07s.07.1.07.17c0,.09-.04.16-.11.24s-.16.11-.25.11c-.06,0-.11-.02-.16-.06s-.07-.1-.08-.19Zm-.92,1.76s.02-.09.05-.17.08-.18.13-.29.14-.2.25-.29.22-.13.34-.12c.15,0,.27.04.37.13s.15.2.15.35c0,.06-.03.17-.08.31s-.13.34-.22.59-.18.46-.24.64c-.02.08-.03.14-.03.18,0,.09.03.14.1.14.03,0,.07,0,.11-.02s.08-.04.13-.08.1-.11.15-.2.1-.2.14-.33c.01-.04.02-.07.03-.08s.04-.01.1-.01c.07,0,.11.02.11.06,0,.03-.02.09-.05.17s-.08.18-.14.29c-.06.1-.14.2-.25.28-.11.08-.22.12-.35.12s-.23-.04-.33-.12-.15-.2-.16-.36c0-.06,0-.12.03-.18s.1-.27.24-.64c.14-.38.22-.61.25-.68s.04-.15.04-.22c0-.09-.03-.13-.1-.13h-.01c-.11,0-.22.06-.31.19s-.16.28-.21.47c0,0,0,0-.01.02s0,.01,0,.02,0,0-.01.01-.01,0-.02,0h-.15s-.03-.04-.03-.05Z"/><path id="MJMAIN-29-3" class="cls-2" d="m335.75,166.22h.03s.05,0,.08,0h.1l.22.19c.5.45.86,1.01,1.09,1.69.23.67.34,1.37.34,2.1,0,.36-.03.71-.08,1.04s-.11.62-.18.85c-.07.23-.17.47-.29.7-.13.23-.23.41-.3.53-.07.12-.18.26-.33.41s-.23.24-.25.26-.09.08-.18.15c-.02.02-.03.03-.03.03h-.18s-.03,0-.04-.02-.02-.04-.02-.07c0,0,.03-.04.09-.1.82-.85,1.23-2.11,1.23-3.78s-.41-2.92-1.23-3.78c-.05-.06-.08-.1-.09-.1,0-.04.01-.07.04-.09Z"/><path id="MJMAIN-32-4" class="cls-2" d="m339.02,166.88c-.1,0-.18-.03-.24-.1-.06-.07-.09-.15-.09-.25,0-.27.1-.5.3-.69.2-.19.45-.29.74-.29.34,0,.63.1.85.31s.34.48.35.82c0,.16-.04.31-.11.46s-.16.27-.27.38-.25.25-.45.42c-.13.12-.32.29-.56.52l-.33.31h.43c.59,0,.9,0,.94-.02.03,0,.07-.17.13-.5v-.02h.22v.02s-.03.18-.07.51c-.04.33-.07.5-.08.52v.02h-2.09v-.17s.01-.05.03-.08.08-.1.17-.2c.11-.12.2-.22.28-.31.03-.04.1-.11.19-.21s.16-.17.19-.21.09-.1.16-.19c.07-.09.13-.15.16-.19.03-.04.07-.1.13-.17s.1-.13.12-.18.05-.1.08-.16.06-.12.07-.18.03-.12.04-.17.02-.11.02-.19c0-.24-.06-.44-.19-.61s-.31-.26-.55-.26c-.12,0-.23.03-.33.1s-.16.13-.2.19-.06.1-.06.11c0,0,0,0,.03,0,.07,0,.14.03.21.08s.11.14.11.26c0,.09-.03.17-.09.24s-.14.1-.25.1Z"/><path id="MJMATHI-6E-2" class="cls-2" d="m318.77,181.31s.01-.07.02-.13.04-.15.1-.3c.05-.15.11-.27.16-.37s.14-.2.26-.29.24-.14.37-.14c.19,0,.35.05.48.14s.21.19.24.27.05.14.05.17c0,.01,0,.02,0,.02l.09-.09c.32-.34.69-.51,1.11-.51.29,0,.52.07.69.21s.27.35.27.63-.1.69-.3,1.25-.31.89-.3,1.01c0,.14.05.21.14.21.03,0,.06,0,.07,0,.15-.03.29-.13.41-.3.12-.17.21-.39.28-.64.01-.04.06-.06.16-.06.11,0,.16.02.16.06,0,0-.01.05-.03.12-.04.15-.1.3-.17.45-.07.15-.2.3-.37.45-.17.15-.35.22-.55.21-.25,0-.43-.07-.54-.21s-.17-.29-.17-.45c0-.1.1-.42.29-.95.19-.54.29-.94.29-1.21,0-.31-.12-.47-.35-.47h-.04c-.46,0-.84.27-1.15.8l-.06.1-.26,1.07c-.17.69-.28,1.07-.3,1.12-.07.14-.18.21-.34.21-.07,0-.12-.02-.17-.05s-.07-.06-.09-.1-.02-.06-.02-.08c0-.07.1-.5.3-1.3.2-.8.31-1.23.32-1.3,0-.03,0-.09,0-.18,0-.21-.06-.31-.19-.31-.2,0-.37.27-.5.8-.03.11-.05.16-.05.17-.01.03-.06.05-.15.05h-.11s-.05-.06-.05-.07Z"/><rect class="cls-4" x="288.54" y="31.78" width="21.93" height=".27"/><path id="MJSZ1-2211-3" class="cls-4" d="m289.08,26.32s.65,0,1.92,0h1.9l.18.49c.03.09.07.18.1.27s.06.16.08.21.03.07.03.08h-.18c-.07-.19-.18-.34-.33-.47s-.31-.22-.49-.27c-.16-.05-.34-.09-.55-.1s-.53-.02-.98-.02h-.52c-.41,0-.61,0-.61,0,0,0,.26.34.74,1.01s.73,1,.73,1.01c.02.03.02.05,0,.07l-.1.13c-.07.08-.18.21-.31.37s-.27.32-.4.48l-.81.96s.32,0,.95,0h.33c.14,0,.25,0,.31,0,.52,0,.92-.04,1.22-.12s.53-.26.71-.53c.03-.05.06-.12.1-.22h.18l-.39,1.14h-1.9c-1.27,0-1.9,0-1.91,0-.02,0-.03-.02-.03-.04,0-.01.09-.13.28-.35.2-.24.39-.46.57-.67l.82-.97s-.28-.39-.83-1.15l-.83-1.14v-.05s0-.08.02-.09Z"/><path id="MJMAIN-7C" class="cls-4" d="m294.93,30.79h0s-.06-.02-.08-.06v-4.35s.06-.06.09-.06c.04,0,.07.02.09.07v4.34s-.05.06-.08.06h0Z"/><path id="MJMATHI-79-7" class="cls-4" d="m295.67,28.39s.02-.11.07-.21.12-.21.21-.32.21-.16.33-.16c.12,0,.22.03.3.1s.11.16.12.29c0,.06-.01.09-.01.09,0,0-.02.08-.07.21s-.1.27-.15.43-.07.29-.07.39c0,.13.02.22.06.27s.1.08.19.08c.07,0,.13-.02.19-.05.06-.03.11-.07.14-.1s.07-.09.12-.15c0,0,0-.03.02-.09s.04-.14.06-.26.06-.23.09-.33c.11-.45.18-.68.19-.7.04-.08.1-.12.19-.12.04,0,.07.01.09.03s.04.04.05.05.01.03,0,.04c0,.04-.07.35-.22.94-.15.59-.23.91-.25.97-.08.25-.23.44-.43.59-.21.15-.41.22-.62.22-.13,0-.25-.03-.35-.1-.1-.07-.15-.16-.15-.3,0-.07.01-.12.03-.17s.05-.08.09-.1.07-.04.09-.04.05-.01.08-.01c.13,0,.2.06.2.19,0,.06-.02.11-.05.16s-.07.07-.1.09-.05.02-.06.02h-.01s.03.04.09.06c.05.02.1.03.15.03h.04c.05,0,.09,0,.12,0,.1-.03.19-.08.27-.17.08-.09.15-.18.19-.28s.08-.18.1-.25c.02-.07.04-.11.04-.13l-.03.02s-.05.03-.09.05c-.04.02-.08.04-.12.05-.06.01-.12.02-.17.02-.14,0-.26-.03-.36-.1-.1-.07-.17-.17-.21-.32,0-.02,0-.07,0-.14,0-.17.05-.39.16-.67.1-.27.16-.45.16-.52h0v-.06s0-.02-.02-.03-.03-.02-.05-.02h-.02c-.07,0-.13.03-.19.09s-.1.12-.13.18-.06.13-.08.19-.03.09-.04.1-.03,0-.07,0h-.06s-.03-.03-.03-.04Z"/><path id="MJMATHI-69-7" class="cls-4" d="m298.37,28.45c0-.05.02-.1.06-.13s.09-.06.14-.06c.04,0,.07.01.1.04s.04.06.04.1c0,.05-.02.09-.06.13s-.09.06-.14.06c-.03,0-.06-.01-.09-.03s-.04-.06-.04-.1Zm-.52.99s0-.05.03-.1.04-.1.08-.16.08-.11.14-.16.12-.07.19-.07c.08,0,.15.02.21.07s.08.11.09.2c0,.04-.01.1-.04.18s-.07.19-.13.33-.1.26-.13.36c-.01.05-.02.08-.02.1,0,.05.02.08.05.08.02,0,.04,0,.06,0s.05-.02.07-.04.06-.06.09-.11.06-.11.08-.19c0-.03.01-.04.02-.04s.02,0,.05,0c.04,0,.06.01.06.03,0,.02,0,.05-.03.1s-.05.1-.08.16c-.03.06-.08.11-.14.16-.06.05-.13.07-.2.07s-.13-.02-.19-.07-.09-.11-.09-.2c0-.04,0-.07.02-.1s.06-.15.14-.36c.08-.21.13-.34.14-.38s.02-.08.02-.12c0-.05-.02-.08-.05-.08h0c-.06,0-.12.03-.17.1s-.09.16-.12.27c0,0,0,0,0,0s0,0,0,0,0,0,0,0,0,0,0,0h-.08s-.02-.02-.02-.03Z"/><path id="MJMAIN-2212-4" class="cls-4" d="m300.72,28.61v-.06s.02-.07.06-.09h2.6s.07.05.07.09-.02.07-.07.09h-2.6s-.06-.05-.06-.09v.06Z"/><path id="MJMATHI-79-8" class="cls-4" d="m304.94,28.39s.02-.11.07-.21.12-.21.21-.32.21-.16.33-.16c.12,0,.22.03.3.1s.11.16.12.29c0,.06-.01.09-.01.09,0,0-.02.08-.07.21s-.1.27-.15.43-.07.29-.07.39c0,.13.02.22.06.27s.1.08.19.08c.07,0,.13-.02.19-.05.06-.03.11-.07.14-.1s.07-.09.12-.15c0,0,0-.03.02-.09s.04-.14.06-.26.06-.23.09-.33c.11-.45.18-.68.19-.7.04-.08.1-.12.19-.12.04,0,.07.01.09.03s.04.04.05.05.01.03,0,.04c0,.04-.07.35-.22.94-.15.59-.23.91-.25.97-.08.25-.23.44-.43.59-.21.15-.41.22-.62.22-.13,0-.25-.03-.35-.1-.1-.07-.15-.16-.15-.3,0-.07.01-.12.03-.17s.05-.08.09-.1.07-.04.09-.04.05-.01.08-.01c.13,0,.2.06.2.19,0,.06-.02.11-.05.16s-.07.07-.1.09-.05.02-.06.02h-.01s.03.04.09.06c.05.02.1.03.15.03h.04c.05,0,.09,0,.12,0,.1-.03.19-.08.27-.17.08-.09.15-.18.19-.28s.08-.18.1-.25c.02-.07.04-.11.04-.13l-.03.02s-.05.03-.09.05c-.04.02-.08.04-.12.05-.06.01-.12.02-.17.02-.14,0-.26-.03-.36-.1-.1-.07-.17-.17-.21-.32,0-.02,0-.07,0-.14,0-.17.05-.39.16-.67.1-.27.16-.45.16-.52h0v-.06s0-.02-.02-.03-.03-.02-.05-.02h-.02c-.07,0-.13.03-.19.09s-.1.12-.13.18-.06.13-.08.19-.03.09-.04.1-.03,0-.07,0h-.06s-.03-.03-.03-.04Z"/><path id="MJMAIN-5E-4" class="cls-4" d="m305.61,27.09l.61-.6.04.04c.39.37.58.56.58.56l-.12.13s-.09-.08-.26-.22l-.24-.21-.25.21s-.08.07-.12.1-.07.06-.09.09l-.04.03s-.03-.01-.07-.06l-.06-.06Z"/><path id="MJMATHI-69-8" class="cls-4" d="m307.96,28.9c0-.05.02-.1.06-.13s.09-.06.14-.06c.04,0,.07.01.1.04s.04.06.04.1c0,.05-.02.09-.06.13s-.09.06-.14.06c-.03,0-.06-.01-.09-.03s-.04-.06-.04-.1Zm-.52.99s0-.05.03-.1.04-.1.08-.16.08-.11.14-.16.12-.07.19-.07c.08,0,.15.02.21.07s.08.11.09.2c0,.04-.01.1-.04.18s-.07.19-.13.33-.1.26-.13.36c-.01.05-.02.08-.02.1,0,.05.02.08.05.08.02,0,.04,0,.06,0s.05-.02.07-.04.06-.06.09-.11.06-.11.08-.19c0-.03.01-.04.02-.04s.02,0,.05,0c.04,0,.06.01.06.03,0,.02,0,.05-.03.1s-.05.1-.08.16c-.03.06-.08.11-.14.16-.06.05-.13.07-.2.07s-.13-.02-.19-.07-.09-.11-.09-.2c0-.04,0-.07.02-.1s.06-.15.14-.36c.08-.21.13-.34.14-.38s.02-.08.02-.12c0-.05-.02-.08-.05-.08h0c-.06,0-.12.03-.17.1s-.09.16-.12.27c0,0,0,0,0,0s0,0,0,0,0,0,0,0,0,0,0,0h-.08s-.02-.02-.02-.03Z"/><path id="MJMAIN-7C-2" class="cls-4" d="m309.55,30.79h0s-.06-.02-.08-.06v-4.35s.06-.06.09-.06c.04,0,.07.02.09.07v4.34s-.05.06-.08.06h0Z"/><path id="MJMATHI-6E-3" class="cls-4" d="m298.24,34.82s0-.04.01-.07.02-.09.05-.17c.03-.08.06-.15.09-.21s.08-.11.15-.17.14-.08.21-.08c.11,0,.2.03.27.08s.12.1.13.15.03.08.03.09c0,0,0,0,0,0l.05-.05c.18-.19.39-.29.62-.29.16,0,.29.04.39.12s.15.2.15.35-.05.39-.17.7-.17.5-.17.57c0,.08.03.12.08.12.02,0,.03,0,.04,0,.09-.01.16-.07.23-.17.07-.1.12-.22.16-.36,0-.02.04-.04.09-.04.06,0,.09.01.09.04,0,0,0,.03-.02.07-.02.09-.06.17-.1.26-.04.08-.11.17-.21.25-.1.08-.2.12-.31.12-.14,0-.24-.04-.3-.12s-.09-.16-.09-.25c0-.06.05-.24.16-.54.11-.3.16-.53.17-.68,0-.18-.07-.26-.2-.26h-.02c-.26,0-.47.15-.65.45l-.03.05-.15.6c-.1.39-.16.6-.17.63-.04.08-.1.12-.19.12-.04,0-.07,0-.09-.03s-.04-.04-.05-.05-.01-.03,0-.04c0-.04.06-.28.17-.73.11-.45.17-.69.18-.73,0-.01,0-.05,0-.1,0-.12-.04-.17-.11-.17-.11,0-.21.15-.28.45-.02.06-.03.09-.03.09,0,.02-.03.03-.09.03h-.06s-.03-.03-.03-.04Z"/><path id="MJMATHI-3B8-2" class="cls-6" d="m4.05,97.61c0-1.97.38-4.04,1.13-6.22s1.77-4.06,3.06-5.64,2.63-2.49,4.02-2.72h.23c.13,0,.25,0,.35-.03,1.04.08,1.85.55,2.43,1.42.75,1.16,1.13,2.71,1.13,4.65,0,2.22-.43,4.47-1.3,6.76-.87,2.29-1.98,4.17-3.32,5.64-1.35,1.46-2.64,2.2-3.87,2.2h-.2c-.69,0-1.29-.19-1.79-.58-.5-.39-.88-.9-1.13-1.53-.25-.64-.43-1.28-.55-1.94-.12-.66-.17-1.33-.17-2.02Zm10.06-10.58c0-1.97-.51-2.95-1.53-2.95-.69,0-1.37.43-2.02,1.3-.66.87-1.19,1.85-1.62,2.95s-.75,2.06-.98,2.89-.36,1.31-.38,1.45c.94.02,1.88.03,2.8.03l2.8-.03s.1-.34.23-.95.29-1.39.46-2.31.25-1.72.23-2.37Zm-7.81,12.55c0,2.04.51,3.06,1.53,3.06.29,0,.6-.1.93-.29.33-.19.72-.56,1.19-1.1.46-.54.93-1.38,1.39-2.51.46-1.14.93-2.54,1.39-4.22l.14-.49h-5.64c0,.06-.09.42-.26,1.1s-.33,1.43-.46,2.25-.2,1.56-.2,2.2Z"/><path id="MJMAIN-398-2" class="cls-2" d="m111.61,119.31c0-1.09.2-2.09.59-3.02.39-.93.9-1.69,1.53-2.28s1.32-1.05,2.08-1.37c.76-.33,1.53-.49,2.32-.49,1.74,0,3.27.68,4.57,2.04s1.97,3.06,1.98,5.1c0,1.06-.19,2.04-.57,2.95s-.88,1.66-1.49,2.28c-.62.62-1.32,1.08-2.1,1.39s-1.58.48-2.4.51-1.6-.14-2.38-.49c-.77-.35-1.47-.82-2.1-1.39-.63-.58-1.12-1.33-1.47-2.26s-.54-1.92-.57-2.96Zm10.88.02c0-1.16-.13-2.19-.39-3.06-.26-.88-.62-1.55-1.08-2.02-.46-.47-.93-.82-1.41-1.04s-1-.33-1.55-.33c-.68,0-1.3.2-1.87.59s-1.01.86-1.34,1.41c-.69,1.06-1.04,2.55-1.04,4.46,0,.85.05,1.53.16,2.04.17,1.01.51,1.86,1.02,2.55.51.69,1.14,1.2,1.88,1.51.42.16.84.24,1.26.24.35,0,.71-.05,1.06-.16s.74-.3,1.16-.59c.42-.29.77-.66,1.06-1.12.29-.46.54-1.07.77-1.85s.33-1.65.31-2.63Zm-7.6,1.49v-3.12h.79v.67h4.93v-.67h.79v3.12h-.79v-.67h-4.93v.67h-.79Z"/><path id="MJMAIN-2264" class="cls-6" d="m158.67,49.49c.13,0,.25.05.35.15s.15.22.15.37-.06.27-.17.35c-.02.02-2.26,1.09-6.72,3.21l-6.62,3.14,6.17,2.94c4.78,2.26,7.2,3.43,7.27,3.51.05.1.07.19.07.27,0,.3-.15.46-.45.5h-.15l-7.17-3.39c-4.81-2.27-7.24-3.43-7.27-3.46-.12-.08-.17-.22-.17-.42.02-.18.12-.32.32-.42.13-.07,2.51-1.19,7.12-3.36,4.61-2.17,6.96-3.29,7.05-3.34.07-.03.14-.05.22-.05Zm-14.69,18.77c0-.17.12-.33.37-.5h14.41c.27.1.4.27.4.5,0,.2-.12.37-.37.5h-14.46c-.23-.12-.35-.28-.35-.5Z"/></g><g id="light"><path class="cls-1" d="m217.58,20.7l-1.56,1.56c-.28.28-.43.47-.47.59-.02.06,0,.16.07.31.07.15.21.37.43.64.22.27.43.51.62.71l-.14.14-4.82-4.82.14-.14c.35.35.68.66,1,.92s.55.42.7.49c.15.07.27.08.37.06.09-.03.28-.18.54-.44l1.56-1.56-2.9-2.9,10.87-2.46.24.24-6.17,6.17,1.45,1.45-.5.5-1.45-1.45Zm-1.05-2.05l3.82-3.82-6.21,1.44,2.39,2.39Z"/><path class="cls-1" d="m164.89,180.52l-3.82-10.14-3.31-8.45c-.31.1-.53.17-.66.22-.82.32-1.62.84-2.4,1.57-.77.73-1.38,1.53-1.81,2.4-.95,1.91-1.05,3.83-.31,5.76.68,1.77,1.81,2.85,3.4,3.23.96.23,1.84.2,2.64-.11.64-.25,1.2-.65,1.67-1.2.27-.31.45-.48.54-.52.25-.1.43,0,.53.27.12.32-.07.72-.57,1.22-.5.5-1.11.89-1.83,1.16-1.33.51-2.66.49-4.01-.07-1.55-.65-2.67-1.87-3.36-3.65-.9-2.35-.69-4.67.63-6.97,1.11-1.93,2.73-3.31,4.85-4.13,2.03-.78,4.05-.88,6.06-.31,3.13.9,5.38,3.15,6.77,6.76,1.09,2.84,1.18,5.55.26,8.12-.56,1.58-1.46,2.96-2.68,4.13-1.02.99-2.17,1.73-3.44,2.22-1.66.64-3.26.74-4.79.31-1.12-.32-1.78-.75-1.99-1.29-.06-.16-.05-.33.03-.5.08-.17.21-.29.38-.36.27-.1.58,0,.95.33.72.61,1.45.96,2.21,1.04.86.11,1.83-.05,2.91-.46.36-.14.75-.34,1.15-.59Z"/><path id="MJSZ2-2211-2" class="cls-1" d="m44.11,96.26c.06.04,2.12,5.36,6.19,15.97l6.11,15.91-2.98,2.9c-2.03,1.97-3.11,3.02-3.22,3.15l-.41-1.06.3-.33c.58-.65,1.08-1.4,1.49-2.27.51-1.21.81-2.44.91-3.72s0-2.66-.29-4.16c-.29-1.5-.66-2.89-1.08-4.16s-1.01-2.9-1.75-4.88l-1.27-3.3-.31-.82-2.96-7.72-.21.32c-8.02,12.44-12.08,18.7-12.17,18.77-.03.03-.08.05-.16.06-.07-.03-3.63-1.34-10.66-3.91l-10.61-3.93s.69,1.87,2.11,5.59l1.43,3.73c.6,1.57,1.03,2.7,1.27,3.39.92,2.4,1.71,4.32,2.36,5.76s1.41,2.85,2.25,4.2c.84,1.35,1.75,2.43,2.73,3.23s2.09,1.41,3.34,1.84c.6.19,1.37.31,2.32.35l.41,1.06s-.23.02-.63.03-1.06.01-1.97,0-1.76,0-2.53.03l-4.69.04-6.12-15.88c-4.07-10.61-6.1-15.95-6.09-16.01,0-.12.05-.2.18-.25.04-.01.09-.02.18,0l21.53,7.9s.3-.45.85-1.33,1.47-2.29,2.74-4.24,2.4-3.69,3.39-5.24l6.95-10.73.39-.18c.37-.14.6-.18.69-.11Z"/><path id="MJMATHI-3B5" class="cls-1" d="m184.63,28.27c.02,3.31-.78,6.17-2.42,8.59s-4.03,3.66-7.19,3.73c-3.36.02-6.5-1.71-9.43-5.19l-.53-.75-.67.61c-1.24,1.16-2.64,1.75-4.2,1.76-3.01.02-5.62-1.66-7.85-5.06-2.23-3.39-3.36-7.04-3.39-10.95v-.9c-.03-2.91.73-5.49,2.27-7.76.79-1.16,1.52-1.74,2.17-1.74.55,0,1.13.27,1.73.81s.94,1.2.99,1.95c0,.45-.22.95-.67,1.51s-.89,1.38-1.34,2.49-.66,2.49-.65,4.14c.02,3.31.65,6.21,1.87,8.71s2.73,3.76,4.54,3.8c.95,0,1.85-.44,2.7-1.3.45-.45.7-.76.75-.91s0-.45-.16-.9c-.71-1.55-1.08-3.58-1.1-6.08v-.38c-.03-3.26.74-4.89,2.29-4.9,2.05-.01,3.1,2.11,3.13,6.37.02,2.31-.29,4.34-.93,6.1l.53.75c2.18,3.19,4.69,4.78,7.55,4.76,3.66-.03,5.46-3.37,5.42-10.04-.02-2.61-.28-4.73-.8-6.38s-1.1-2.7-1.75-3.14c-.65-.45-1.21-.87-1.66-1.27s-.73-.82-.84-1.27c.1-.7.52-1.06,1.27-1.06.45,0,1.1.27,1.96.81.86.55,1.76,1.32,2.72,2.31.96,1,1.82,2.47,2.59,4.42s1.13,4.08,1.1,6.38Z"/><path id="MJMATHI-3C9" class="cls-1" d="m301.38,123.86c0-.25.11-.48.33-.69.22-.21.45-.32.71-.33.22,0,.41.1.59.31s.26.56.26,1.05c0,.35-.07.84-.21,1.48-.14.64-.35,1.35-.64,2.12-.29.77-.7,1.44-1.24,2.02-.54.58-1.15.86-1.83.85-.92,0-1.55-.44-1.9-1.33-.01-.02-.05,0-.12.09-.68.83-1.45,1.24-2.33,1.24-1.27,0-1.9-.86-1.9-2.59,0-1.05.24-2.12.71-3.21.47-1.09.86-1.72,1.16-1.88.14-.08.28-.09.41-.03.15.08.22.18.22.31,0,.14-.12.36-.35.67-.23.31-.49.73-.79,1.26s-.48,1.09-.55,1.69c-.01.07-.02.19-.02.36,0,.72.14,1.22.41,1.5s.61.41,1,.41c.67,0,1.25-.3,1.76-.91l.14-.14v-.33c.06-1.62.43-2.43,1.1-2.43.36,0,.53.21.53.62,0,.21-.06.48-.17.83s-.23.66-.35.95l-.17.4s.02.06.03.1c.01.05.06.13.14.24s.17.22.28.31.24.17.41.24.37.11.6.12c.72,0,1.35-.41,1.86-1.24s.78-1.55.78-2.17c0-.36-.07-.65-.22-.88s-.29-.41-.43-.55-.21-.29-.22-.47Z"/><path id="MJMATHI-3BB" class="cls-1" d="m101.45,32.72c.22-.34.65-.49,1.3-.44l.82.52c2.53,1.72,3.72,3.47,3.55,5.26-.1.54-.71,3.33-1.84,8.36-1.13,5.03-2.21,9.96-3.24,14.77-1.03,4.81-1.58,7.28-1.65,7.39-.16.7-.27,1.29-.34,1.78-.06.48-.11.84-.13,1.06s-.03.4-.03.52.02.22.06.28c.04.07.02.13-.07.2s-.25.14-.5.22l-2.93-1.85c-.46-.86-.66-1.56-.59-2.12s.55-2.95,1.45-7.16l1.46-6.61-1.01.27c-.66.22-1.84.59-3.52,1.09s-3.1.93-4.25,1.29c-1.24.38-2.79.85-4.63,1.42-2.55.8-4.09,1.23-4.62,1.3s-1.03-.03-1.51-.29c-1.03-.65-1.26-1.44-.68-2.36.31-.49.8-.82,1.47-1,.67-.18,3.88-.86,9.62-2.06,1.39-.29,2.94-.62,4.66-.98,1.72-.36,3-.64,3.84-.83l1.17-.23s.57-2.49,1.65-7.39c1.08-4.9,1.67-7.54,1.75-7.93.24-1.66-.08-2.76-.97-3.33-.49-.31-.59-.69-.3-1.15Z"/><path id="MJMATHI-3BC" class="cls-1" d="m254.6,54.64c-.43,0-.8-.12-1.11-.36-.31-.24-.48-.58-.52-1.01,0-.31,1.09-4.97,3.27-13.97,2.18-9.01,3.34-13.6,3.46-13.79.39-.86,1.1-1.3,2.12-1.31.37.03.68.13.93.32s.4.37.47.55.09.34.1.46c0,.37-.46,2.44-1.39,6.2-.93,3.76-1.42,5.88-1.48,6.34-.06.34-.09.88-.08,1.62v.37c.02,2.25,1.06,3.36,3.12,3.35.28,0,.55-.02.83-.05s.54-.1.78-.19.48-.2.69-.33.41-.23.6-.33.37-.25.55-.47.35-.37.5-.47.31-.28.46-.56.27-.45.37-.51.23-.25.41-.56l.32-.46,1.62-6.62c1.08-4.38,1.68-6.71,1.8-6.99.39-.83,1.05-1.25,1.98-1.26.4,0,.72.1.97.32.25.21.42.4.51.55s.13.31.1.46l-3.41,14.71c-.03.15-.04.4-.04.74,0,.77.12,1.28.33,1.52.22.24.54.38.97.41.28-.03.58-.17.92-.42.64-.62,1.26-2.1,1.86-4.45.18-.62.33-.94.45-.97.06-.03.22-.05.46-.05h.18c.59,0,.88.13.88.41,0,.18-.07.6-.22,1.25s-.45,1.48-.91,2.5-.94,1.79-1.46,2.32c-.4.4-.89.73-1.47.98-.25.06-.62.1-1.11.1-.65,0-1.23-.08-1.76-.26s-.94-.41-1.25-.68-.57-.55-.79-.83-.36-.51-.42-.69-.09-.29-.09-.32l-.28.28c-.18.19-.46.42-.83.7s-.77.56-1.19.84-.98.53-1.66.75c-.68.22-1.32.33-1.94.34-1.45.01-2.88-.33-4.3-1.03l-1.08,4.49c-.63,2.53-1,3.99-1.12,4.4s-.3.74-.55,1.02c-.49.43-1.01.65-1.57.66Z"/><path id="MJMATHI-3C7" class="cls-1" d="m224.29,134.99c.1.17.1.43,0,.78s-.26.6-.5.75l-.13.08c-.63.37-1.18.45-1.63.23-.42-.2-1.11-.75-2.06-1.64l-.33-.32s-.05.25-.14.71c-.09.46-.2.97-.32,1.52-.12.55-.23,1.06-.32,1.52s-.15.7-.18.73c-.02.04-.05.08-.1.1-.05.03-.11.04-.17.02-.06-.02-.11-.05-.15-.1s-.04-.17,0-.36c.03-.19.19-.92.46-2.21l.5-2.36-.28-.29c-1.84-1.77-2.96-2.53-3.38-2.28-.24.14-.32.43-.23.87.02.06-.03.13-.17.21-.15.09-.25.1-.3.02-.04-.06-.06-.18-.08-.34s.03-.39.13-.65.29-.48.55-.62c.59-.35,1.11-.44,1.56-.27.25.11.59.33,1,.66s.76.63,1.05.91l.41.41s.18-.75.48-2.2.46-2.21.5-2.27c.04-.04.07-.07.09-.08.14-.08.25-.06.32.07.03.05.03.17,0,.34s-.18.9-.44,2.16c-.33,1.57-.5,2.38-.5,2.42l.32.31c.74.73,1.43,1.31,2.07,1.76.64.45,1.06.61,1.26.49.11-.06.18-.17.23-.32.05-.15.05-.31.01-.48-.02-.09-.02-.15,0-.18s.08-.06.16-.11.13-.07.17-.08c.05,0,.09.03.13.08Z"/><path id="MJMATHI-3B3" class="cls-1" d="m332.3,104.56c-.27-.25-.36-.43-.25-.55.21-.23.59-.46,1.15-.67s1.21-.39,1.94-.52c.74-.13,1.49-.11,2.27.07.78.18,1.45.49,2,.94.37.33.59.54.66.63.52.74.73,1.59.63,2.56s-.54,2.19-1.32,3.67c-.54.99-.97,1.66-1.28,2-.05.05-.07.09-.05.1l.74-.33c.9-.45,1.86-.91,2.89-1.37s1.88-.82,2.56-1.08,1.07-.39,1.17-.4c.04.01.16.1.35.27l.27.24c0,.16,0,.25-.04.3-.05.05-.46.23-1.24.52s-1.96.8-3.55,1.52-3.19,1.52-4.79,2.37c-.28.15-.77.51-1.46,1.1-.7.59-1.49,1.18-2.38,1.79-1.02.69-1.75,1.14-2.21,1.35s-.8.22-1.03.04c-.23-.21-.18-.5.17-.89.61-.68,2.33-1.86,5.16-3.53l.47-.28.35-.35c.14-.12.33-.33.59-.62,1.93-2.15,2.87-3.99,2.82-5.51-.08-1.01-.5-1.85-1.25-2.53-.66-.59-1.42-.95-2.29-1.09-.87-.13-1.68-.01-2.44.37-.14.1-.22.14-.25.11-.05,0-.17-.08-.37-.25Z"/></g><g id="sense"><path id="MJSZ2-222B" class="cls-5" d="m20.84,187.48c1,1.45,2.42,2.17,4.26,2.17h.17c1.56,0,3.12-1.67,4.68-5.01,1.56-3.34,3.01-7.91,4.34-13.7,1.34-5.79,2.59-11.61,3.76-17.46,1.17-5.85,2.34-12.17,3.51-18.97.17-1.17.31-2.03.42-2.59,4.01-23.67,8.36-45.62,13.03-65.84,4.68-20.22,8.08-33.37,10.19-39.44.33-1,.61-1.84.84-2.51s.7-1.89,1.42-3.68c.72-1.78,1.48-3.34,2.26-4.68s1.73-2.7,2.84-4.09,2.34-2.51,3.68-3.34,2.76-1.23,4.26-1.17c3.12,0,5.46.97,7.02,2.92,1.56,1.95,2.45,4.18,2.67,6.68,0,1.39-.33,2.51-1,3.34s-1.31,1.36-1.92,1.59-1.23.31-1.84.25c-1.17,0-2.23-.42-3.18-1.25s-1.42-1.98-1.42-3.43c0-2.67,1.48-4.26,4.43-4.76l-.25-.33c-.17-.17-.39-.36-.67-.58s-.5-.39-.67-.5c-.84-.56-1.75-.84-2.76-.84-.78,0-1.5.33-2.17,1s-1.56,2.23-2.67,4.68-2.2,5.68-3.26,9.69c-1.06,4.01-2.37,9.66-3.93,16.96s-3.12,15.88-4.68,25.73c-3.29,18.66-6.71,36.29-10.28,52.89-3.56,16.6-6.35,28.63-8.36,36.1-2.01,7.46-3.54,12.81-4.6,16.04-4.29,12.98-9.58,19.47-15.88,19.47-2.23,0-4.26-.86-6.1-2.59s-2.87-4.09-3.09-7.1c0-1.95.53-3.29,1.59-4.01,1.06-.72,2.12-1.09,3.18-1.09,1.17,0,2.23.42,3.18,1.25s1.42,1.98,1.42,3.43c0,2.67-1.48,4.26-4.43,4.76Z"/><path class="cls-5" d="m230.68,93.1c3.4,0,6.54.63,9.44,1.89,2.9,1.26,5.28,2.9,7.16,4.91,1.88,2.02,3.34,4.29,4.38,6.8,1.04,2.52,1.56,5.06,1.56,7.61,0,3.96-.88,7.64-2.64,11.06-1.76,3.42-4.08,6.25-6.95,8.51-2.88,2.26-6.13,4.02-9.77,5.27-3.64,1.26-7.33,1.89-11.09,1.89-4.48,0-8.55-.92-12.23-2.76-.48-.32-1-.95-1.56-1.89-.56-.94-.84-1.83-.84-2.67,0-1.68.5-3.06,1.5-4.14,1-1.08,2.18-1.62,3.54-1.62,1,0,1.88.26,2.64.78.76.52,1.56,1.33,2.4,2.43s1.4,1.79,1.68,2.07c2,2,4.95,3,8.87,3,1.68,0,3.32-.33,4.91-.99,1.6-.66,3.11-1.68,4.52-3.06,1.42-1.38,2.56-3.32,3.42-5.81.86-2.5,1.29-5.4,1.29-8.72,0-1.56-.21-3.14-.63-4.73-.42-1.6-1.13-3.19-2.13-4.76-1-1.58-2.22-2.99-3.66-4.23-1.44-1.24-3.26-2.24-5.45-3-2.2-.76-4.64-1.14-7.31-1.14-1.36,0-3.15.19-5.36.57-2.22.38-3.79.79-4.7,1.23-.24,0-.46-.18-.66-.54-.2-.36-.3-.74-.3-1.14,4.31-22.05,6.63-33.92,6.95-35.6h17.74c1.44,0,3.08-.08,4.91-.24,1.84-.24,3.32-.44,4.43-.6l1.68-.24c.12.08.29.19.51.33.22.14.38.24.48.3.1.06.2.15.3.27.1.12.15.26.15.42,0,.6-.37,1.9-1.11,3.9-.74,2-1.57,3.54-2.49,4.61-4.47.48-9.11.72-13.9.72h-10.07c-.32,1.6-.77,3.9-1.35,6.89-.58,3-1.11,5.69-1.59,8.09-.48,2.4-.94,4.6-1.38,6.59,1.6-.64,3.69-1.18,6.26-1.62,2.58-.44,4.72-.66,6.44-.66Z"/><path id="MJMATHI-3B7" class="cls-5" d="m133.61,100.44c.08-.25.17-.59.25-1.01s.3-1.35.63-2.78.76-2.74,1.27-3.92,1.14-2.57,1.9-4.18,1.6-2.87,2.53-3.8,2.02-1.86,3.29-2.78,2.66-1.31,4.18-1.14c2.02,0,3.84.3,5.44.89s2.87,1.35,3.8,2.28,1.6,1.86,2.02,2.78.76,1.73,1.01,2.4l.25.89c0,.17.04.25.13.25l1.39-1.39c5.15-5.4,11.01-8.1,17.59-8.1,4.56,0,8.22,1.14,11.01,3.42s4.22,5.61,4.3,10v1.27c0,2.02-2.7,13.54-8.1,34.54-4.89,19.82-7.51,30.03-7.84,30.62-1.1,2.28-2.99,3.42-5.69,3.42-1.1,0-2.02-.34-2.78-1.01s-1.22-1.6-1.39-2.78c0-.76,2.49-11.01,7.47-30.75l7.84-31.63c.25-1.27.38-2.87.38-4.81,0-4.98-1.86-7.47-5.57-7.47h-.63c-7.25,0-13.37,4.26-18.35,12.78l-.89,1.52-4.18,16.95c-2.78,11.05-4.39,17-4.81,17.84-1.1,2.28-2.91,3.42-5.44,3.42-1.1,0-1.98-.25-2.66-.76s-1.14-1.01-1.39-1.52-.34-.93-.25-1.27c0-1.1,1.69-8.35,5.06-21.76,3.37-13.41,5.06-20.88,5.06-22.4,0-3.29-1.1-4.93-3.29-4.93-1.77,0-3.29,1.18-4.56,3.54s-2.28,4.93-3.04,7.72-1.22,4.3-1.39,4.56c-.17.17-.84.25-2.02.25h-1.77c-.51-.51-.76-.89-.76-1.14Z"/><path id="MJMATHI-3F5" class="cls-5" d="m100.46,140.45c-6.93,0-12.8-2.31-17.59-6.93-4.8-4.62-7.24-10.53-7.33-17.73,0-7.82,2.09-14.4,6.26-19.73,3.02-4,6.84-7.29,11.46-9.86,4.62-2.58,9.69-4.09,15.2-4.53.18-.09,2.04-.13,5.6-.13h5.07c1.33.44,2,1.33,2,2.67,0,2.31-1.82,3.47-5.47,3.47h-3.87c-10.75,0-17.77,4.8-21.06,14.4l-.53,1.6h23.59c1.16.8,1.73,1.64,1.73,2.53,0,1.6-.89,2.8-2.67,3.6h-24.26v.27c-.89,2.67-1.33,5.95-1.33,9.86,0,5.86,1.42,9.91,4.27,12.13,2.84,2.22,6,3.38,9.46,3.47,2.4,0,4.75-.44,7.06-1.33,2.31-.89,4.18-1.82,5.6-2.8,1.42-.98,2.18-1.47,2.27-1.47.62,0,1.11.44,1.47,1.33.36.89.53,1.73.53,2.53,0,.27-.04.44-.13.53-.27.36-1.16.98-2.67,1.87-1.51.89-3.64,1.82-6.4,2.8s-5.51,1.47-8.26,1.47Z"/><path id="MJMATHI-65-2" class="cls-5" d="m269.89,117.58c0-4.52.75-8.65,2.26-12.38,1.51-3.73,3.45-6.82,5.83-9.28s5.04-4.52,7.97-6.19c2.94-1.67,5.71-2.9,8.33-3.69,2.62-.79,5.12-1.15,7.5-1.07h.36c3.57,0,6.67.87,9.28,2.62s3.93,4.32,3.93,7.74c0,7.14-4.4,11.82-13.21,14.04-3.89,1.03-9.2,1.59-15.95,1.67-2.94,0-4.44.08-4.52.24,0,.16-.24,1.55-.71,4.17s-.75,4.92-.83,6.9c0,3.73.83,6.67,2.5,8.81,1.67,2.14,4.17,3.25,7.5,3.33,3.33.08,7.02-.67,11.07-2.26,4.05-1.59,7.7-4.21,10.95-7.86.71-.79,1.19-1.19,1.43-1.19.32,0,.83.36,1.55,1.07s1.11,1.27,1.19,1.67-.28,1.03-1.07,1.9-1.98,1.94-3.57,3.21c-1.59,1.27-3.41,2.5-5.47,3.69-2.06,1.19-4.56,2.18-7.5,2.98s-5.95,1.19-9.05,1.19c-6.27,0-11.11-2.1-14.52-6.31-3.41-4.21-5.16-9.2-5.24-15Zm39.75-22.02c-.48-4.13-3.17-6.19-8.09-6.19-2.62,0-5.04.56-7.26,1.67-2.22,1.11-4.01,2.46-5.36,4.05-1.35,1.59-2.5,3.21-3.45,4.88s-1.59,3.09-1.9,4.28-.52,1.94-.6,2.26c0,.08.79.12,2.38.12,8.97,0,15.23-.95,18.8-2.86,3.57-1.9,5.4-4.64,5.47-8.21Z"/><path id="MJMATHI-78" class="cls-3" d="m319.98,72.14c.26-1.54,1.24-3.31,2.97-5.33,1.72-2.01,3.84-3.04,6.37-3.08,1.28,0,2.45.33,3.52.99,1.06.66,1.85,1.48,2.36,2.47,1.54-2.31,3.39-3.46,5.55-3.46,1.35,0,2.53.4,3.52,1.21s1.5,1.89,1.54,3.24c0,1.06-.26,1.92-.77,2.58-.51.66-1.01,1.06-1.48,1.21s-.9.22-1.26.22c-.7,0-1.26-.2-1.7-.6s-.66-.93-.66-1.59c0-1.68.92-2.84,2.75-3.46-.4-.48-1.14-.71-2.2-.71-.48,0-.82.04-1.04.11-1.39.59-2.42,1.79-3.08,3.62-2.2,8.09-3.3,12.82-3.3,14.17,0,1.03.29,1.76.88,2.2s1.23.66,1.92.66c1.35,0,2.69-.6,4.01-1.81s2.22-2.69,2.69-4.45c.11-.37.22-.57.33-.6s.4-.07.88-.11h.22c.55,0,.82.15.82.44,0,.04-.04.24-.11.6-.59,2.09-1.72,3.94-3.41,5.55-1.68,1.61-3.64,2.42-5.88,2.42-2.56,0-4.5-1.15-5.82-3.46-1.5,2.27-3.22,3.41-5.16,3.41h-.33c-1.79,0-3.08-.48-3.84-1.43-.77-.95-1.17-1.96-1.21-3.02,0-1.17.35-2.12,1.04-2.86.7-.73,1.52-1.1,2.47-1.1,1.57,0,2.36.77,2.36,2.31,0,.73-.22,1.37-.66,1.92s-.86.92-1.26,1.1-.64.27-.71.27l-.16.05s.11.11.33.22.51.24.88.38.71.2,1.04.16c1.32,0,2.45-.82,3.41-2.47.33-.59.75-1.83,1.26-3.73.51-1.9,1.03-3.88,1.54-5.93.51-2.05.81-3.26.88-3.62.18-.99.27-1.7.27-2.14,0-1.03-.27-1.76-.82-2.2s-1.17-.66-1.87-.66c-1.46,0-2.84.59-4.12,1.76-1.28,1.17-2.18,2.67-2.69,4.5-.07.33-.16.51-.27.55s-.4.07-.88.11h-.77c-.22-.22-.33-.42-.33-.6Z"/></g></svg>